<?xml version="1.0" encoding="UTF-8" standalone="no" ?>
<!DOCTYPE svg PUBLIC "-//W3C//DTD SVG 1.1//EN" "http://www.w3.org/Graphics/SVG/1.1/DTD/svg11.dtd">
<svg xmlns="http://www.w3.org/2000/svg" xmlns:xlink="http://www.w3.org/1999/xlink" version="1.1" width="1280" height="1024" viewBox="0 0 1280 1024" xml:space="preserve">
<desc>Created with Fabric.js 3.1.0</desc>
<defs>
</defs>
<g transform="matrix(1.9692780337941629 0 0 1.9692780337941629 640.0153846153846 512.012312418764)" id="background-logo"  >
<rect style="stroke: none; stroke-width: 1; stroke-dasharray: none; stroke-linecap: butt; stroke-dashoffset: 0; stroke-linejoin: miter; stroke-miterlimit: 4; fill: rgb(255,255,255); fill-rule: nonzero; opacity: 1;"  paint-order="stroke"  x="-325" y="-260" rx="0" ry="0" width="650" height="520" />
</g>
<g transform="matrix(1.9692780337941629 0 0 1.9692780337941629 640.015227522711 420.8461236386096)" style="" id="logo-logo"  >
	<g transform="matrix(2.378 0 0 -2.378 -6.014920228291317 -46.5327808924489)"  >
<path style="stroke: none; stroke-width: 1; stroke-dasharray: none; stroke-linecap: butt; stroke-dashoffset: 0; stroke-linejoin: miter; stroke-miterlimit: 4; fill: rgb(26,45,23); fill-rule: nonzero; opacity: 1;"  paint-order="stroke"  transform=" translate(16.460396834444794, 34.77893239048414)" d="m 0 0 c 11.943 -1.398 22.152 -4.995 29.525 -10.4 c 7.045 -5.163 11.024 -11.766 11.202 -18.594 c 0.16 -6.151 -2.725 -12.366 -8.342 -17.974 c -5.871 -5.864 -14.451 -10.92 -25.51 -15.04 c -0.303 -0.126 -0.594 -0.23 -0.85 -0.32 L 4.814 -62.758 L 3.6 -63.191 c -0.276 -0.099 -0.592 -0.21 -0.952 -0.316 c -8.027 -2.721 -15.709 -4.634 -22.875 -5.693 c -7.537 -1.114 -14.58 -1.302 -20.936 -0.559 c -14.033 1.644 -24.495 7.842 -29.455 17.455 c -2.153 4.177 -3.197 8.962 -3.016 13.837 c 0.18 4.835 1.562 9.803 4 14.372 c 3.927 7.359 10.397 13.532 18.704 17.846 c 9.443 4.907 20.967 7.226 33.35 6.721 C -11.496 0.812 -5.584 0.654 0 0" stroke-linecap="round" />
</g>
	<g transform="matrix(2.378 0 0 -2.378 -6.014920228291317 -46.5327808924489)"  >
<path style="stroke: none; stroke-width: 1; stroke-dasharray: none; stroke-linecap: butt; stroke-dashoffset: 0; stroke-linejoin: miter; stroke-miterlimit: 4; fill: rgb(39,54,25); fill-rule: nonzero; opacity: 1;"  paint-order="stroke"  transform=" translate(16.460396834444794, 34.77893239048414)" d="m 0 0 c 11.943 -1.398 22.152 -4.995 29.525 -10.4 c 7.045 -5.163 11.024 -11.766 11.202 -18.594 c 0.16 -6.151 -2.725 -12.366 -8.342 -17.974 c -5.871 -5.864 -14.451 -10.92 -25.51 -15.04 c -0.303 -0.126 -0.594 -0.23 -0.85 -0.32 L 4.814 -62.758 L 3.6 -63.191 c -0.276 -0.099 -0.592 -0.21 -0.952 -0.316 c -8.027 -2.721 -15.709 -4.634 -22.875 -5.693 c -7.537 -1.114 -14.58 -1.302 -20.936 -0.559 c -14.033 1.644 -24.495 7.842 -29.455 17.455 c -2.153 4.177 -3.197 8.962 -3.016 13.837 c 0.18 4.835 1.562 9.803 4 14.372 c 3.927 7.359 10.397 13.532 18.704 17.846 c 9.443 4.907 20.967 7.226 33.35 6.721 C -11.496 0.812 -5.584 0.654 0 0" stroke-linecap="round" />
</g>
	<g transform="matrix(2.378 0 0 -2.378 39.816079771708644 14.44921910755113)"  >
<path style="stroke: none; stroke-width: 1; stroke-dasharray: none; stroke-linecap: butt; stroke-dashoffset: 0; stroke-linejoin: miter; stroke-miterlimit: 4; fill: rgb(244,241,225); fill-rule: nonzero; opacity: 1;"  paint-order="stroke"  transform=" translate(1.5105, 0.5375)" d="m 0 0 c -0.24 -0.085 -0.576 -0.205 -1.031 -0.366 c -1.354 -0.481 -1.91 -0.68 -1.99 -0.709 z" stroke-linecap="round" />
</g>
	<g transform="matrix(2.378 0 0 -2.378 43.87907977170863 13.005219107551113)"  >
<path style="stroke: none; stroke-width: 1; stroke-dasharray: none; stroke-linecap: butt; stroke-dashoffset: 0; stroke-linejoin: miter; stroke-miterlimit: 4; fill: rgb(244,241,225); fill-rule: nonzero; opacity: 1;"  paint-order="stroke"  transform=" translate(-0.1975, -0.07)" d="M 0 0 C 0.186 0.065 0.316 0.112 0.395 0.14 Z" stroke-linecap="round" />
</g>
	<g transform="matrix(2.378 0 0 -2.378 29.302079771708634 -122.30378089244888)"  >
<path style="stroke: none; stroke-width: 1; stroke-dasharray: none; stroke-linecap: butt; stroke-dashoffset: 0; stroke-linejoin: miter; stroke-miterlimit: 4; fill: rgb(244,241,225); fill-rule: nonzero; opacity: 1;"  paint-order="stroke"  transform=" translate(0.003, -0.0005)" d="m 0 0 l -0.006 0.001 c 0.002 0 0.002 0 0.004 -0.001 z" stroke-linecap="round" />
</g>
	<g transform="matrix(2.378 0 0 -2.378 29.305079771708677 -122.30278089244888)"  >
<path style="stroke: none; stroke-width: 1; stroke-dasharray: none; stroke-linecap: butt; stroke-dashoffset: 0; stroke-linejoin: miter; stroke-miterlimit: 4; fill: rgb(244,241,225); fill-rule: nonzero; opacity: 1;"  paint-order="stroke"  transform=" translate(0, 0)" d="M 0 0 Z" stroke-linecap="round" />
</g>
	<g transform="matrix(2.378 0 0 -2.378 -5.5319202282913125 -46.47478089244888)"  >
<path style="stroke: none; stroke-width: 1; stroke-dasharray: none; stroke-linecap: butt; stroke-dashoffset: 0; stroke-linejoin: miter; stroke-miterlimit: 4; fill: rgb(244,241,225); fill-rule: nonzero; opacity: 1;"  paint-order="stroke"  transform=" translate(11.452600034360252, -20.750693849518008)" d="m 0 0 c -1.67 -0.698 -3.395 -1.25 -5.09 -1.681 c -3.4 -0.858 -6.672 -1.239 -9.65 -1.35 c -2.731 -0.097 -5.219 0.028 -7.526 0.298 c -0.216 0.025 -0.431 0.052 -0.646 0.08 c -4.957 0.657 -8.908 1.967 -11.895 3.522 c -2.988 1.562 -5.018 3.399 -6.197 5.187 c -0.293 0.448 -0.546 0.888 -0.744 1.32 c -0.192 0.434 -0.354 0.852 -0.467 1.255 c -0.108 0.405 -0.186 0.789 -0.231 1.15 c -0.041 0.36 -0.058 0.695 -0.055 1 c 0.004 0.306 0.026 0.58 0.055 0.818 c 0.018 0.124 0.033 0.24 0.049 0.344 c 0.024 0.124 0.039 0.236 0.059 0.337 c 0.021 0.121 0.035 0.134 0.048 0.174 c 0.012 0.033 0.021 0.062 0.03 0.085 c 0.02 0.046 0.029 0.069 0.029 0.069 c 1.389 3.496 7.199 6.188 12.982 6.016 c 0.487 -0.016 0.958 -0.05 1.411 -0.103 c 3.764 -0.441 6.332 -2.152 6.777 -4.36 l -0.003 -0.012 c 0 0 0.003 -0.024 0.015 -0.067 c 0.002 -0.022 0.008 -0.05 0.012 -0.082 c 0.006 -0.023 0.008 -0.069 0.017 -0.07 c 0 0 0.006 0.002 0.01 0.009 l 0.041 0.04 l 0.01 0.008 l 0.014 -0.009 l 0.023 -0.014 c 0.029 -0.022 0.063 -0.048 0.102 -0.079 c 0.16 -0.124 0.361 -0.348 0.785 -0.755 c 0.217 -0.2 0.49 -0.445 0.849 -0.72 c 0.366 -0.274 0.813 -0.581 1.362 -0.898 c 1.09 -0.633 2.588 -1.308 4.414 -1.824 c 0.9 -0.259 1.916 -0.48 2.906 -0.641 c 0.424 -0.069 0.846 -0.129 1.26 -0.177 c 0.549 -0.064 1.084 -0.111 1.584 -0.139 c 0.443 -0.028 0.861 -0.039 1.248 -0.043 c 0.392 -0.006 0.752 -0.001 1.111 0.022 c 0.352 0.023 0.727 0.065 1.108 0.178 c 0.384 0.112 0.8 0.3 1.173 0.592 c 0.098 0.073 0.186 0.153 0.274 0.235 l 0.131 0.133 l 0.062 0.069 l 0.032 0.033 v 0.002 c 0 0 0.001 -0.011 0.001 -0.022 V 9.911 c 0 0 0.004 0.004 0.008 0.018 l 0.016 0.033 l 0.062 0.133 l 0.014 0.033 l 0.014 0.016 l 0.021 0.022 l 0.055 0.045 l 0.049 0.075 c 0.066 0.103 0.117 0.204 0.174 0.307 c 0.203 0.408 0.318 0.848 0.275 1.317 c -0.076 0.936 -0.813 1.967 -2.016 2.889 c -1.195 0.93 -2.804 1.766 -4.591 2.493 c -1.795 0.727 -3.778 1.356 -5.842 1.915 c -2.137 0.575 -4.299 1.141 -6.473 1.743 c -2.172 0.606 -4.357 1.241 -6.482 2.061 c -0.53 0.206 -1.057 0.424 -1.575 0.658 c -0.516 0.236 -1.026 0.488 -1.52 0.762 c -0.984 0.547 -1.916 1.184 -2.689 1.937 c -0.775 0.751 -1.392 1.623 -1.753 2.563 c -0.175 0.471 -0.299 0.955 -0.363 1.444 l -0.007 0.047 v -0.005 c 0 0 -0.004 0.024 -0.002 0.048 c 0.002 0.027 0.004 0.051 0.004 0.051 l -0.016 0.063 l -0.029 0.129 c -0.006 0.013 -0.003 0.061 -0.006 0.095 l -0.002 0.113 v 0.219 c 0.002 0.262 0.012 0.525 0.051 0.796 c 0.137 1.076 0.596 2.237 1.43 3.37 c 0.826 1.136 2 2.238 3.398 3.198 c 1.399 0.965 2.995 1.792 4.637 2.467 c 0.821 0.339 1.658 0.638 2.494 0.91 c 0.838 0.27 1.68 0.501 2.51 0.708 c 3.34 0.821 6.547 1.166 9.457 1.243 c 0.731 0.021 1.442 0.023 2.137 0.007 c 0.348 -0.005 0.687 -0.019 1.025 -0.031 c 0.17 -0.006 0.338 -0.014 0.506 -0.022 l 0.063 -0.002 c 0.004 0.001 0.209 -0.017 0.142 -0.009 l 0.088 -0.005 l 0.178 -0.01 l 0.183 -0.01 l 0.282 -0.02 c 0.179 -0.016 0.361 -0.03 0.541 -0.045 c 0.32 -0.026 0.642 -0.055 0.957 -0.088 c 0.14 -0.015 0.281 -0.031 0.42 -0.048 c 0.482 -0.056 0.959 -0.118 1.422 -0.186 c 4.794 -0.714 8.544 -2.075 11.302 -3.655 c 2.764 -1.585 4.539 -3.415 5.494 -5.151 c 0.481 -0.866 0.76 -1.705 0.893 -2.469 c 0.063 -0.382 0.098 -0.743 0.105 -1.08 c 0.002 -0.338 -0.013 -0.649 -0.048 -0.931 c -0.035 -0.283 -0.08 -0.533 -0.133 -0.753 c -0.053 -0.218 -0.11 -0.403 -0.152 -0.551 c -0.106 -0.3 -0.172 -0.455 -0.172 -0.455 c -1.067 -2.485 -5.258 -4.362 -9.354 -4.19 c -0.295 0.012 -0.584 0.036 -0.861 0.068 c -1.408 0.164 -2.58 0.579 -3.422 1.162 l -2.754 1.912 l -0.031 0.022 c -0.022 0.014 -0.045 0.035 -0.086 0.065 c -0.071 0.054 -0.178 0.138 -0.317 0.246 c -0.275 0.215 -0.673 0.54 -1.326 0.998 c -0.652 0.454 -1.592 1.043 -2.92 1.654 c -1.316 0.612 -3.015 1.235 -5.006 1.694 c -0.244 0.06 -0.5 0.112 -0.755 0.165 c -0.129 0.026 -0.256 0.051 -0.387 0.077 l -0.078 0.014 l -0.063 0.016 l -0.066 0.014 l -0.162 0.023 l -0.17 0.023 l -0.086 0.012 c -0.012 0.001 -0.02 0.003 -0.02 0.003 c -0.027 0.002 0.098 -0.008 0.077 -0.006 l -0.028 0.003 l -0.197 0.035 c -0.133 0.021 -0.266 0.044 -0.399 0.062 c -0.265 0.037 -0.533 0.075 -0.798 0.108 c -0.049 0.006 -0.098 0.012 -0.149 0.018 c -1.008 0.117 -1.996 0.18 -2.892 0.191 c -0.475 0.006 -0.914 -0.001 -1.328 -0.02 c -0.42 -0.016 -0.801 -0.045 -1.178 -0.09 c -0.371 -0.05 -0.76 -0.113 -1.147 -0.25 c -0.39 -0.134 -0.806 -0.341 -1.175 -0.651 c -0.094 -0.074 -0.18 -0.157 -0.268 -0.245 c -0.024 -0.021 -0.039 -0.027 -0.057 -0.041 l -0.029 -0.018 c -0.012 -0.009 -0.021 -0.004 -0.033 -0.034 l -0.071 -0.134 l -0.035 -0.065 v -0.005 c 0 0 -0.002 0.013 -0.002 0.024 c 0.002 0.013 0.002 0.025 0.002 0.025 c 0 0 -0.004 -0.004 -0.004 -0.015 l -0.015 -0.019 c -0.145 -0.204 -0.274 -0.411 -0.369 -0.622 c -0.198 -0.421 -0.295 -0.87 -0.241 -1.345 c 0.106 -0.949 0.872 -1.979 2.094 -2.899 c 1.221 -0.926 2.844 -1.751 4.653 -2.467 c 1.81 -0.716 3.808 -1.329 5.894 -1.871 c 2.152 -0.557 4.334 -1.106 6.523 -1.696 c 2.186 -0.594 4.391 -1.22 6.538 -2.036 C 2.057 18.022 2.586 17.804 3.111 17.571 C 3.633 17.334 4.15 17.083 4.648 16.808 C 5.646 16.26 6.592 15.619 7.379 14.859 C 8.168 14.102 8.797 13.222 9.17 12.271 C 9.26 12.033 9.34 11.791 9.402 11.546 L 9.449 11.363 L 9.484 11.15 L 9.5 11.042 L 9.51 10.992 L 9.52 10.961 L 9.553 10.834 L 9.564 10.803 v 0.007 c 0 0 -0.001 -0.088 0 -0.095 l 0.01 -0.096 l 0.022 -0.191 C 9.605 10.3 9.609 10.169 9.615 10.038 C 9.617 9.774 9.605 9.506 9.572 9.232 C 9.438 8.14 8.977 6.958 8.139 5.802 C 7.309 4.645 6.117 3.52 4.701 2.535 C 3.287 1.547 1.668 0.697 0 0 m 3.441 52.601 c -0.08 0.01 -0.166 0.02 -0.248 0.029 l -0.002 0.001 c -5.132 0.601 -10.699 0.767 -16.623 0.412 c -22.418 1.034 -37.779 -8.099 -45.165 -19.81 c -11.151 -17.682 -4.118 -41.24 24.266 -44.564 c 10.917 -1.278 25.005 0.439 42.423 6.64 c 0.295 0.105 0.59 0.21 0.881 0.316 c 0.002 0.002 0.009 0.004 0.013 0.005 c 0.356 0.129 0.703 0.259 1.053 0.39 c 48.094 18.063 34.873 51.598 -6.598 56.581" stroke-linecap="round" />
</g>
	<g transform="matrix(2.378 0 0 -2.378 -11.566920228291337 -45.61878089244888)"  >
<path style="stroke: none; stroke-width: 1; stroke-dasharray: none; stroke-linecap: butt; stroke-dashoffset: 0; stroke-linejoin: miter; stroke-miterlimit: 4; fill: rgb(207,96,65); fill-rule: nonzero; opacity: 1;"  paint-order="stroke"  transform=" translate(9.294584462074596, 23.153529508970585)" d="m 0 0 c -0.139 0.017 -0.279 0.033 -0.42 0.048 c -0.314 0.033 -0.637 0.062 -0.957 0.088 c -0.18 0.015 -0.361 0.029 -0.541 0.045 l -0.281 0.02 l -0.184 0.01 l -0.178 0.01 l -0.087 0.005 c 0.066 -0.008 -0.139 0.01 -0.143 0.009 L -2.854 0.237 C -3.021 0.245 -3.189 0.253 -3.359 0.259 C -3.697 0.271 -4.037 0.285 -4.385 0.29 C -5.08 0.306 -5.791 0.304 -6.521 0.283 c -2.911 -0.077 -6.118 -0.422 -9.458 -1.243 c -0.83 -0.207 -1.671 -0.438 -2.509 -0.708 c -0.836 -0.271 -1.674 -0.571 -2.494 -0.91 c -1.643 -0.675 -3.239 -1.502 -4.638 -2.467 c -1.398 -0.96 -2.572 -2.062 -3.398 -3.198 c -0.834 -1.133 -1.293 -2.294 -1.43 -3.37 c -0.039 -0.271 -0.049 -0.534 -0.051 -0.796 v -0.219 l 0.002 -0.113 c 0.003 -0.034 0 -0.082 0.006 -0.095 l 0.03 -0.129 l 0.015 -0.063 c 0 0 -0.002 -0.024 -0.004 -0.051 c -0.002 -0.024 -0.003 -0.048 -0.003 -0.048 c 0 0 0.005 0.002 0.005 0.005 l 0.007 -0.047 c 0.065 -0.489 0.189 -0.973 0.363 -1.444 c 0.362 -0.94 0.978 -1.812 1.753 -2.563 c 0.774 -0.753 1.705 -1.39 2.69 -1.937 c 0.493 -0.274 1.004 -0.526 1.52 -0.762 c 0.517 -0.234 1.045 -0.452 1.574 -0.658 c 2.125 -0.82 4.311 -1.455 6.482 -2.061 c 2.174 -0.602 4.336 -1.168 6.473 -1.743 c 2.065 -0.559 4.047 -1.188 5.842 -1.915 c 1.787 -0.727 3.396 -1.563 4.592 -2.493 c 1.203 -0.922 1.939 -1.953 2.015 -2.889 c 0.043 -0.469 -0.072 -0.908 -0.275 -1.317 c -0.057 -0.103 -0.108 -0.204 -0.174 -0.307 L 2.365 -33.333 L 2.311 -33.378 L 2.289 -33.4 L 2.275 -33.416 L 2.262 -33.449 L 2.199 -33.582 L 2.184 -33.615 C 2.18 -33.629 2.176 -33.634 2.176 -33.634 v 0.02 c 0 0.011 -0.002 0.022 -0.002 0.022 v -0.002 L 2.143 -33.627 L 2.08 -33.696 L 1.949 -33.829 c -0.088 -0.082 -0.176 -0.162 -0.273 -0.234 c -0.373 -0.293 -0.789 -0.481 -1.174 -0.593 c -0.381 -0.113 -0.756 -0.155 -1.107 -0.178 c -0.36 -0.023 -0.719 -0.028 -1.112 -0.022 c -0.387 0.004 -0.804 0.015 -1.248 0.043 c -0.5 0.028 -1.035 0.075 -1.584 0.139 c -0.414 0.049 -0.836 0.108 -1.26 0.177 c -0.99 0.161 -2.005 0.382 -2.906 0.641 c -1.826 0.516 -3.324 1.191 -4.414 1.824 c -0.549 0.317 -0.996 0.624 -1.361 0.898 c -0.36 0.275 -0.633 0.52 -0.85 0.72 c -0.424 0.407 -0.625 0.631 -0.785 0.755 c -0.039 0.031 -0.072 0.057 -0.102 0.079 l -0.023 0.014 l -0.014 0.009 l -0.009 -0.008 l -0.041 -0.039 c -0.004 -0.008 -0.006 -0.011 -0.006 -0.011 c -0.014 0.002 -0.016 0.048 -0.022 0.071 c -0.004 0.032 -0.01 0.06 -0.012 0.082 c -0.011 0.044 -0.015 0.067 -0.015 0.067 l 0.004 0.012 c -0.446 2.208 -3.014 3.919 -6.778 4.36 c -0.453 0.053 -0.923 0.087 -1.41 0.103 c -5.783 0.172 -11.594 -2.52 -12.983 -6.016 c 0 0 -0.008 -0.022 -0.029 -0.069 c -0.009 -0.023 -0.018 -0.052 -0.029 -0.085 c -0.014 -0.04 -0.028 -0.053 -0.049 -0.174 c -0.02 -0.101 -0.034 -0.213 -0.059 -0.337 c -0.015 -0.104 -0.031 -0.22 -0.048 -0.344 c -0.03 -0.238 -0.051 -0.512 -0.056 -0.818 c -0.003 -0.305 0.014 -0.64 0.056 -1 c 0.044 -0.361 0.123 -0.745 0.23 -1.15 c 0.113 -0.403 0.275 -0.821 0.468 -1.254 c 0.197 -0.433 0.45 -0.873 0.743 -1.321 c 1.18 -1.788 3.209 -3.625 6.197 -5.187 c 2.987 -1.555 6.938 -2.865 11.895 -3.522 c 0.215 -0.028 0.43 -0.054 0.647 -0.08 c 2.306 -0.27 4.795 -0.395 7.525 -0.298 c 2.979 0.111 6.25 0.492 9.65 1.35 c 1.696 0.431 3.42 0.983 5.09 1.681 c 1.668 0.697 3.287 1.547 4.701 2.535 c 1.417 0.985 2.608 2.11 3.438 3.267 c 0.838 1.156 1.299 2.338 1.434 3.43 c 0.033 0.274 0.045 0.542 0.043 0.806 c -0.006 0.131 -0.01 0.262 -0.02 0.39 l -0.021 0.191 l -0.01 0.096 c -0.002 0.007 0.004 0.095 0.004 0.095 c 0 0 -0.004 -0.003 -0.004 -0.007 l -0.012 0.031 l -0.033 0.127 l -0.01 0.031 l -0.01 0.05 l -0.015 0.108 l -0.035 0.213 l -0.047 0.183 c -0.063 0.245 -0.143 0.487 -0.233 0.725 c -0.373 0.951 -1.002 1.831 -1.791 2.588 c -0.787 0.76 -1.732 1.401 -2.73 1.949 c -0.498 0.275 -1.016 0.526 -1.537 0.763 c -0.526 0.233 -1.055 0.452 -1.594 0.657 c -2.147 0.816 -4.352 1.442 -6.537 2.036 c -2.19 0.59 -4.371 1.139 -6.524 1.697 c -2.086 0.541 -4.084 1.154 -5.894 1.87 c -1.809 0.716 -3.432 1.541 -4.653 2.467 c -1.222 0.92 -1.988 1.95 -2.093 2.899 c -0.055 0.475 0.043 0.924 0.24 1.346 c 0.096 0.21 0.225 0.418 0.369 0.621 l 0.016 0.019 c 0 0.011 0.002 0.015 0.002 0.015 c 0 0 0.002 -0.012 0 -0.025 c 0 -0.011 -0.002 -0.024 -0.002 -0.024 c 0.004 0 0.004 0.002 0.004 0.005 l 0.035 0.065 l 0.07 0.134 c 0.012 0.03 0.022 0.025 0.033 0.034 l 0.03 0.018 c 0.017 0.014 0.033 0.02 0.056 0.041 c 0.088 0.088 0.174 0.171 0.268 0.245 c 0.369 0.31 0.785 0.518 1.176 0.651 c 0.386 0.138 0.775 0.201 1.146 0.25 c 0.377 0.045 0.758 0.074 1.178 0.09 c 0.414 0.019 0.853 0.027 1.328 0.02 c 0.896 -0.011 1.885 -0.074 2.893 -0.191 c 0.05 -0.006 0.099 -0.012 0.148 -0.018 c 0.266 -0.033 0.533 -0.071 0.799 -0.108 c 0.133 -0.018 0.265 -0.041 0.398 -0.062 l 0.197 -0.035 l 0.028 -0.003 c 0.021 -0.002 -0.104 0.009 -0.082 0.006 c 0 0 0.013 -0.002 0.025 -0.003 l 0.086 -0.012 l 0.17 -0.023 l 0.162 -0.022 l 0.067 -0.015 l 0.062 -0.016 l 0.078 -0.014 c 0.131 -0.026 0.258 -0.051 0.387 -0.077 c 0.256 -0.053 0.512 -0.105 0.756 -0.165 c 1.99 -0.459 3.689 -1.082 5.006 -1.694 c 1.328 -0.611 2.267 -1.2 2.92 -1.654 c 0.652 -0.458 1.05 -0.783 1.326 -0.998 c 0.138 -0.108 0.246 -0.192 0.316 -0.246 c 0.041 -0.03 0.065 -0.051 0.086 -0.065 l 0.031 -0.022 l 2.754 -1.912 c 0.842 -0.583 2.014 -0.998 3.422 -1.162 c 0.277 -0.032 0.567 -0.056 0.861 -0.068 c 4.096 -0.172 8.288 1.705 9.354 4.19 c 0 0 0.066 0.155 0.172 0.455 c 0.043 0.148 0.099 0.333 0.152 0.551 c 0.053 0.22 0.098 0.47 0.133 0.753 c 0.035 0.282 0.051 0.593 0.049 0.931 c -0.008 0.337 -0.043 0.698 -0.106 1.081 c -0.132 0.763 -0.412 1.602 -0.892 2.468 c -0.955 1.736 -2.731 3.566 -5.494 5.151 C 9.967 -2.261 6.217 -0.9 1.422 -0.186 C 0.959 -0.118 0.482 -0.056 0 0" stroke-linecap="round" />
</g>
	<g transform="matrix(2.378 0 0 -2.378 1.1010797717086689 43.23421910755113)"  >
<path style="stroke: none; stroke-width: 1; stroke-dasharray: none; stroke-linecap: butt; stroke-dashoffset: 0; stroke-linejoin: miter; stroke-miterlimit: 4; fill: rgb(39,54,25); fill-rule: nonzero; opacity: 1;"  paint-order="stroke"  transform=" translate(56.21091676204401, 36.81222439029895)" d="m 0 0 c -11.109 -35.019 -94.932 -45.412 -115.471 -10.806 c 0.029 -0.177 0.058 -0.355 0.087 -0.533 c 6.135 -14.783 18.729 -23.439 32.333 -26.08 c -0.016 0 -0.032 0 -0.047 0.001 c -5.572 0.244 -11.141 1.765 -16.102 4.396 c -5.893 3.126 -10.857 7.714 -14.697 13.463 c 2.49 -12.559 5.874 -24.731 8.811 -32.148 c 4.603 -5.186 9.772 -9.762 15.23 -13.591 c -0.019 0.009 -0.037 0.019 -0.055 0.029 c -4.688 2.545 -9.246 5.821 -13.426 9.619 c 0.102 -0.201 0.205 -0.396 0.305 -0.58 c 6.161 -8.938 16.066 -16.502 33.325 -17.315 c 17.881 -0.843 38.807 5.116 54.203 13.431 c 10.014 4.946 15.973 11.913 17.971 18.555 C 3.771 -37.225 2.857 -17.838 0 0" stroke-linecap="round" />
</g>
</g>
<g transform="matrix(1.9692780337941629 0 0 1.9692780337941629 638.2016815155382 777.7427382974652)" id="text-logo-path"  >
<path style="stroke: none; stroke-width: 1; stroke-dasharray: none; stroke-linecap: butt; stroke-dashoffset: 0; stroke-linejoin: miter; stroke-miterlimit: 4; fill: rgb(39,54,25); fill-rule: nonzero; opacity: 1;"  paint-order="stroke"  transform=" translate(-284.215, 27.770000000000003)" d="M -0.16 -21.76 L -0.16 -21.76 Q -0.16 -23.05 0.2 -24.51 Q 0.55 -25.98 1.13 -27.25 Q 1.72 -28.52 2.48 -29.34 Q 3.24 -30.16 4.06 -30.16 L 4.06 -30.16 Q 4.49 -30.16 4.96 -30 Q 5.43 -29.84 5.94 -29.84 L 5.94 -29.84 Q 6.6 -29.92 7.05 -30.23 Q 7.5 -30.55 8.01 -30.55 L 8.01 -30.55 Q 8.52 -30.55 9.45 -30.37 Q 10.39 -30.2 11.39 -29.92 Q 12.38 -29.65 13.26 -29.38 Q 14.14 -29.1 14.57 -28.87 L 14.57 -28.87 Q 15.2 -28.55 15.9 -27.77 Q 16.6 -26.99 17.19 -26.05 Q 17.77 -25.12 18.16 -24.1 Q 18.55 -23.09 18.55 -22.3 L 18.55 -22.3 Q 18.55 -21.88 18.52 -21.43 Q 18.48 -20.98 18.48 -20.55 L 18.48 -20.55 Q 18.48 -19.77 18.75 -18.96 Q 19.02 -18.16 19.22 -17.19 L 19.22 -17.19 Q 19.38 -16.09 19.43 -15.12 Q 19.49 -14.14 19.61 -13.3 Q 19.73 -12.46 19.94 -11.72 Q 20.16 -10.98 20.7 -10.31 L 20.7 -10.31 Q 21.48 -9.3 22.89 -8.69 Q 24.3 -8.09 25.66 -8.09 L 25.66 -8.09 Q 26.52 -8.09 27.05 -8.36 Q 27.58 -8.63 27.97 -9.02 Q 28.36 -9.41 28.73 -9.82 Q 29.1 -10.23 29.61 -10.55 L 29.61 -10.55 Q 30.39 -11.02 31.09 -11.27 Q 31.8 -11.52 32.34 -11.93 Q 32.89 -12.34 33.2 -13.05 Q 33.52 -13.75 33.52 -15.12 L 33.52 -15.12 Q 33.52 -16.21 33.11 -17.44 Q 32.7 -18.67 32.58 -19.92 L 32.58 -19.92 Q 32.46 -21.02 32.42 -21.78 Q 32.38 -22.54 32.29 -23.22 Q 32.19 -23.91 31.95 -24.59 Q 31.72 -25.27 31.13 -26.17 L 31.13 -26.17 Q 30.98 -26.33 30.43 -26.97 Q 29.88 -27.62 29.16 -28.32 Q 28.44 -29.02 27.62 -29.59 Q 26.8 -30.16 26.09 -30.16 L 26.09 -30.16 Q 25.78 -30.16 25.49 -30.12 Q 25.2 -30.08 24.88 -30.08 L 24.88 -30.08 Q 23.63 -30.08 22.32 -30.63 Q 21.02 -31.17 19.65 -31.97 Q 18.28 -32.77 16.88 -33.67 Q 15.47 -34.57 14.06 -35.27 L 14.06 -35.27 Q 12.89 -35.86 11.43 -36.37 Q 9.96 -36.88 8.67 -37.5 Q 7.38 -38.13 6.52 -38.96 Q 5.66 -39.8 5.66 -41.05 L 5.66 -41.05 Q 5.66 -41.29 5.76 -41.99 Q 5.86 -42.7 6.02 -43.61 Q 6.17 -44.53 6.41 -45.61 Q 6.64 -46.68 6.95 -47.68 Q 7.27 -48.67 7.6 -49.49 Q 7.93 -50.31 8.32 -50.78 L 8.32 -50.78 Q 8.87 -51.45 9.71 -52.07 Q 10.55 -52.7 11.37 -53.18 Q 12.19 -53.67 12.83 -53.96 Q 13.48 -54.26 13.67 -54.26 L 13.67 -54.26 Q 14.02 -54.26 14.36 -54.2 Q 14.69 -54.14 15.04 -54.14 L 15.04 -54.14 Q 15.78 -54.14 16.31 -54.32 Q 16.84 -54.49 17.25 -54.77 Q 17.66 -55.04 18.05 -55.29 Q 18.44 -55.55 18.95 -55.74 L 18.95 -55.74 Q 19.61 -56.02 20.57 -56.02 Q 21.52 -56.02 22.46 -56.25 L 22.46 -56.25 Q 23.55 -56.48 25.21 -56.82 Q 26.88 -57.15 28.57 -57.44 Q 30.27 -57.73 31.76 -57.93 Q 33.24 -58.13 33.98 -58.09 L 33.98 -58.09 Q 34.38 -58.09 34.82 -57.89 Q 35.27 -57.7 35.51 -57.03 L 35.51 -57.03 Q 36.02 -56.68 36.68 -56.52 Q 37.34 -56.37 37.77 -56.02 L 37.77 -56.02 Q 38.36 -55.51 39 -54.69 Q 39.65 -53.87 40.23 -53.28 L 40.23 -53.28 Q 40.82 -52.7 41.27 -52.25 Q 41.72 -51.8 42.01 -51.39 Q 42.3 -50.98 42.44 -50.53 Q 42.58 -50.08 42.58 -49.45 L 42.58 -49.45 Q 42.58 -48.2 42.3 -47.03 Q 42.03 -45.86 41.39 -44.94 Q 40.74 -44.02 39.67 -43.46 Q 38.59 -42.89 36.95 -42.89 L 36.95 -42.89 Q 35.98 -42.89 34.84 -43.11 Q 33.71 -43.32 32.81 -43.67 L 32.81 -43.67 Q 32.34 -43.83 31.88 -44.18 Q 31.41 -44.53 30.94 -44.9 Q 30.47 -45.27 29.96 -45.63 Q 29.45 -45.98 28.87 -46.17 L 28.87 -46.17 Q 28.28 -46.37 27.34 -46.54 Q 26.41 -46.72 25.41 -46.84 Q 24.41 -46.95 23.48 -47.03 Q 22.54 -47.11 21.91 -47.11 L 21.91 -47.11 Q 21.09 -47.11 20.31 -47.01 Q 19.53 -46.91 18.93 -46.62 Q 18.32 -46.33 17.93 -45.82 Q 17.54 -45.31 17.54 -44.49 L 17.54 -44.49 Q 17.54 -44.02 17.71 -43.67 Q 17.89 -43.32 18.22 -43.03 Q 18.55 -42.73 19.06 -42.42 Q 19.57 -42.11 20.23 -41.68 L 20.23 -41.68 Q 20.82 -41.29 21.39 -40.82 Q 21.95 -40.35 22.52 -39.92 Q 23.09 -39.49 23.67 -39.1 Q 24.26 -38.71 24.88 -38.48 L 24.88 -38.48 Q 25.63 -38.24 26.43 -38.18 Q 27.23 -38.13 27.85 -38.01 L 27.85 -38.01 Q 30.16 -37.46 32.17 -36.43 Q 34.18 -35.39 35.9 -34.02 Q 37.62 -32.66 39 -31.07 Q 40.39 -29.49 41.45 -27.85 L 41.45 -27.85 Q 41.95 -27.03 42.27 -26.39 Q 42.58 -25.74 42.73 -25.1 Q 42.89 -24.45 42.93 -23.71 Q 42.97 -22.97 42.97 -21.91 L 42.97 -21.91 Q 42.97 -20.7 43.2 -19.57 Q 43.44 -18.44 43.44 -17.54 L 43.44 -17.54 Q 43.36 -16.45 43.05 -15.47 Q 42.73 -14.49 42.73 -13.52 L 42.73 -13.52 Q 42.73 -13.05 42.81 -12.3 Q 42.89 -11.56 42.89 -10.7 L 42.89 -10.7 Q 42.89 -9.22 42.19 -8.05 Q 41.48 -6.88 40.39 -5.86 Q 39.3 -4.84 37.95 -3.89 Q 36.6 -2.93 35.27 -1.91 L 35.27 -1.91 Q 34.34 -1.17 33.71 -0.43 Q 33.09 0.31 32.27 0.9 Q 31.45 1.48 30.2 1.86 Q 28.95 2.23 26.72 2.23 L 26.72 2.23 Q 25.51 2.23 24.24 2.05 Q 22.97 1.88 21.72 1.64 Q 20.47 1.41 19.32 1.23 Q 18.16 1.05 17.19 1.05 L 17.19 1.05 Q 16.37 1.05 15.63 1.21 Q 14.88 1.37 14.14 1.37 L 14.14 1.37 Q 13.83 1.37 13.05 1.11 Q 12.27 0.86 11.37 0.41 Q 10.47 -0.04 9.57 -0.68 Q 8.67 -1.33 8.09 -2.15 L 8.09 -2.15 Q 7.54 -2.89 7.4 -3.73 Q 7.27 -4.57 6.88 -5.35 L 6.88 -5.35 Q 6.33 -6.33 5.45 -7.23 Q 4.57 -8.13 3.91 -9.38 L 3.91 -9.38 Q 3.32 -10.51 2.89 -12.11 Q 2.46 -13.71 1.91 -15.27 L 1.91 -15.27 Q 1.21 -17.34 0.53 -18.98 Q -0.16 -20.63 -0.16 -21.76 Z M 46.56 -21.45 L 46.56 -21.45 Q 46.56 -22.07 46.66 -22.91 Q 46.76 -23.75 46.91 -24.59 Q 47.07 -25.43 47.27 -26.19 Q 47.46 -26.95 47.7 -27.42 L 47.7 -27.42 Q 47.89 -27.89 48.14 -28.2 Q 48.4 -28.52 48.63 -28.83 Q 48.87 -29.14 49.02 -29.45 Q 49.18 -29.77 49.18 -30.23 L 49.18 -30.23 Q 49.18 -30.59 49.1 -30.84 Q 49.02 -31.09 48.91 -31.33 Q 48.79 -31.56 48.71 -31.82 Q 48.63 -32.07 48.63 -32.38 L 48.63 -32.38 Q 48.63 -32.34 48.81 -32.81 Q 48.98 -33.28 49.3 -33.96 Q 49.61 -34.65 50.06 -35.45 Q 50.51 -36.25 51.04 -36.93 Q 51.56 -37.62 52.21 -38.09 Q 52.85 -38.55 53.52 -38.55 L 53.52 -38.55 L 54.41 -38.55 L 54.73 -38.55 Q 55.27 -38.55 56.05 -38.44 Q 56.84 -38.32 57.75 -38.2 Q 58.67 -38.09 59.71 -37.97 Q 60.74 -37.85 61.76 -37.85 L 61.76 -37.85 Q 63.55 -37.85 65.39 -37.97 Q 67.23 -38.09 68.87 -38.09 L 68.87 -38.09 Q 71.21 -38.09 72.44 -37.5 Q 73.67 -36.91 74.28 -36.04 Q 74.88 -35.16 75.14 -34.12 Q 75.39 -33.09 75.82 -32.15 L 75.82 -32.15 Q 76.13 -31.45 76.91 -30.64 Q 77.7 -29.84 78.32 -28.71 L 78.32 -28.71 Q 78.63 -28.16 78.71 -27.38 Q 78.79 -26.6 79.1 -26.02 L 79.1 -26.02 Q 79.41 -25.16 79.82 -24.71 Q 80.23 -24.26 80.31 -23.75 L 80.31 -23.75 Q 80.31 -23.52 80.35 -23.32 Q 80.39 -23.13 80.39 -22.89 L 80.39 -22.89 Q 80.39 -21.99 80.18 -21.05 Q 79.96 -20.12 79.65 -19.18 Q 79.34 -18.24 79.02 -17.29 Q 78.71 -16.33 78.55 -15.35 L 78.55 -15.35 Q 78.48 -14.96 78.48 -14.47 Q 78.48 -13.98 78.48 -13.48 Q 78.48 -12.97 78.44 -12.5 Q 78.4 -12.03 78.32 -11.68 L 78.32 -11.68 Q 78.13 -10.7 77.54 -9.57 Q 76.95 -8.44 76.41 -7.42 L 76.41 -7.42 Q 75.59 -5.9 74.94 -4.86 Q 74.3 -3.83 73.42 -3.18 Q 72.54 -2.54 71.21 -2.27 Q 69.88 -1.99 67.7 -1.99 L 67.7 -1.99 Q 65.82 -1.99 63.91 -2.19 Q 61.99 -2.38 60.2 -2.73 Q 58.4 -3.09 56.84 -3.54 Q 55.27 -3.98 54.14 -4.49 L 54.14 -4.49 Q 52.81 -5.08 52.03 -5.74 Q 51.25 -6.41 50.68 -7.34 Q 50.12 -8.28 49.65 -9.67 Q 49.18 -11.05 48.48 -13.13 L 48.48 -13.13 Q 48.13 -14.18 47.75 -15.2 Q 47.38 -16.21 47.11 -17.25 Q 46.84 -18.28 46.68 -19.32 Q 46.52 -20.35 46.56 -21.45 Z M 56.02 -24.14 L 56.02 -24.14 Q 56.02 -22.27 56.15 -21.02 Q 56.29 -19.77 56.6 -18.95 Q 56.91 -18.13 57.38 -17.64 Q 57.85 -17.15 58.55 -16.8 L 58.55 -16.8 Q 59.18 -16.56 59.57 -16.56 Q 59.96 -16.56 60.55 -16.33 L 60.55 -16.33 Q 60.9 -16.21 61.09 -16 Q 61.29 -15.78 61.46 -15.57 Q 61.64 -15.35 61.86 -15.2 Q 62.07 -15.04 62.38 -15.04 L 62.38 -15.04 Q 62.66 -15.04 62.99 -15.08 Q 63.32 -15.12 63.67 -15.12 L 63.67 -15.12 Q 64.14 -15.12 64.49 -14.96 Q 64.84 -14.8 65.1 -14.59 Q 65.35 -14.38 65.57 -14.22 Q 65.78 -14.06 66.02 -14.06 L 66.02 -14.06 Q 66.13 -14.1 66.82 -14.45 Q 67.5 -14.8 68.28 -15.25 Q 69.06 -15.7 69.71 -16.09 Q 70.35 -16.48 70.39 -16.56 L 70.39 -16.56 Q 70.59 -16.88 70.68 -17.56 Q 70.78 -18.24 70.84 -19.02 Q 70.9 -19.8 70.92 -20.55 Q 70.94 -21.29 70.98 -21.76 L 70.98 -21.76 Q 71.05 -22.54 71.13 -23.85 Q 71.21 -25.16 71.21 -26.41 L 71.21 -26.41 Q 71.21 -27.03 71.05 -27.91 Q 70.9 -28.79 70.39 -29.59 Q 69.88 -30.39 68.93 -30.96 Q 67.97 -31.52 66.41 -31.52 L 66.41 -31.52 Q 65.43 -31.52 64.39 -31.33 Q 63.36 -31.13 62.38 -31.13 L 62.38 -31.13 Q 61.91 -31.13 61.41 -31.17 Q 60.9 -31.21 60.39 -31.21 L 60.39 -31.21 Q 59.02 -31.21 58.16 -30.64 Q 57.3 -30.08 56.84 -29.12 Q 56.37 -28.16 56.19 -26.88 Q 56.02 -25.59 56.02 -24.14 Z M 81.99 -28.79 L 81.99 -28.79 Q 81.99 -29.49 82.44 -29.82 Q 82.89 -30.16 83.59 -30.29 Q 84.3 -30.43 85.08 -30.49 Q 85.86 -30.55 86.56 -30.72 Q 87.27 -30.9 87.71 -31.29 Q 88.16 -31.68 88.16 -32.46 L 88.16 -32.46 Q 88.16 -33.44 88.01 -34.39 Q 87.85 -35.35 87.64 -36.21 Q 87.42 -37.07 87.27 -37.79 Q 87.11 -38.52 87.11 -39.02 L 87.11 -39.02 Q 87.11 -40.9 87.29 -42.56 Q 87.46 -44.22 87.46 -45.94 L 87.46 -45.94 Q 87.46 -47.07 87.29 -48.09 Q 87.11 -49.1 87.11 -50.08 L 87.11 -50.08 Q 87.11 -51.8 88.14 -53.16 Q 89.18 -54.53 90.76 -55.57 Q 92.34 -56.6 94.26 -57.34 Q 96.17 -58.09 97.95 -58.55 Q 99.73 -59.02 101.13 -59.24 Q 102.54 -59.45 103.13 -59.45 L 103.13 -59.45 Q 106.17 -59.45 108.22 -59 Q 110.27 -58.55 111.62 -57.52 Q 112.97 -56.48 113.71 -54.77 Q 114.45 -53.05 114.88 -50.55 L 114.88 -50.55 Q 115.04 -49.73 115.35 -48.81 Q 115.66 -47.89 115.98 -46.99 Q 116.29 -46.09 116.54 -45.18 Q 116.8 -44.26 116.8 -43.44 L 116.8 -43.44 Q 116.8 -42.89 116.72 -42.4 Q 116.64 -41.91 116.33 -41.45 L 116.33 -41.45 Q 116.05 -41.02 115.29 -40.59 Q 114.53 -40.16 113.5 -39.77 Q 112.46 -39.38 111.27 -39.02 Q 110.08 -38.67 108.96 -38.42 Q 107.85 -38.16 106.89 -38.01 Q 105.94 -37.85 105.43 -37.85 L 105.43 -37.85 Q 104.26 -37.85 103.67 -38.79 Q 103.09 -39.73 102.83 -41.13 Q 102.58 -42.54 102.5 -44.16 Q 102.42 -45.78 102.21 -47.19 Q 101.99 -48.59 101.52 -49.53 Q 101.05 -50.47 100 -50.47 L 100 -50.47 Q 99.8 -50.47 99.1 -50.29 Q 98.4 -50.12 97.62 -49.92 L 97.62 -49.92 Q 96.68 -49.69 95.59 -49.38 L 95.59 -49.38 Q 95.43 -49.18 95.35 -48.77 Q 95.27 -48.36 95.21 -47.85 Q 95.16 -47.34 95.14 -46.86 Q 95.12 -46.37 95.12 -46.02 L 95.12 -46.02 Q 95.12 -45.27 95.55 -44.51 Q 95.98 -43.75 96.5 -42.91 Q 97.03 -42.07 97.48 -41.15 Q 97.93 -40.23 97.93 -39.22 L 97.93 -39.22 Q 97.93 -38.63 98.07 -38.22 Q 98.2 -37.81 98.36 -37.5 Q 98.52 -37.19 98.65 -36.95 Q 98.79 -36.72 98.79 -36.48 L 98.79 -36.48 Q 98.79 -36.41 98.73 -36.07 Q 98.67 -35.74 98.61 -35.31 Q 98.55 -34.88 98.52 -34.43 Q 98.48 -33.98 98.48 -33.67 L 98.48 -33.67 Q 98.48 -33.24 98.61 -33.18 Q 98.75 -33.13 99.14 -33.13 L 99.14 -33.13 Q 99.69 -33.13 100.63 -33.36 Q 101.56 -33.59 102.52 -33.85 Q 103.48 -34.1 104.3 -34.34 Q 105.12 -34.57 105.43 -34.57 L 105.43 -34.57 Q 107.19 -34.57 109.06 -34.24 Q 110.94 -33.91 112.15 -33.52 L 112.15 -33.52 Q 112.89 -33.24 113.34 -33.18 Q 113.79 -33.13 114 -32.79 Q 114.22 -32.46 114.28 -31.66 Q 114.34 -30.86 114.34 -29.1 L 114.34 -29.1 Q 114.34 -28.13 114.32 -27.38 Q 114.3 -26.64 113.85 -26.13 Q 113.4 -25.63 112.29 -25.37 Q 111.17 -25.12 109.02 -25.12 L 109.02 -25.12 Q 107.77 -25.12 106.97 -24.92 Q 106.17 -24.73 105.47 -24.51 Q 104.77 -24.3 104.04 -24.1 Q 103.32 -23.91 102.23 -23.91 L 102.23 -23.91 Q 102.03 -23.91 101.56 -24.02 Q 101.09 -24.14 100.9 -24.14 L 100.9 -24.14 Q 100.7 -24.14 100.59 -23.91 Q 100.47 -23.67 100.39 -23.32 Q 100.31 -22.97 100.27 -22.58 Q 100.23 -22.19 100.23 -21.84 L 100.23 -21.84 Q 100.23 -20.9 100.37 -19.77 Q 100.51 -18.63 100.7 -17.6 Q 100.9 -16.56 101.05 -15.74 Q 101.21 -14.92 101.29 -14.57 L 101.29 -14.57 Q 101.41 -13.71 101.41 -12.79 Q 101.41 -11.88 101.52 -11.05 L 101.52 -11.05 Q 101.72 -9.8 102.05 -8.16 Q 102.38 -6.52 102.38 -5.04 L 102.38 -5.04 Q 102.38 -2.7 100.76 -1.45 Q 99.14 -0.2 95.12 0.08 L 95.12 0.08 Q 94.69 0.12 94.38 0.2 Q 94.06 0.27 93.79 0.37 Q 93.52 0.47 93.24 0.55 Q 92.97 0.63 92.58 0.63 L 92.58 0.63 Q 91.05 0.63 89.82 -0.08 Q 88.59 -0.78 87.75 -1.89 Q 86.91 -3.01 86.46 -4.38 Q 86.02 -5.74 86.02 -7.11 L 86.02 -7.11 Q 86.02 -8.48 86.13 -9.92 Q 86.25 -11.37 86.25 -12.81 L 86.25 -12.81 L 86.25 -14.34 Q 86.25 -15.04 86.29 -15.64 Q 86.33 -16.25 86.41 -16.88 Q 86.48 -17.5 86.62 -18.22 Q 86.76 -18.95 86.95 -19.92 L 86.95 -19.92 Q 86.95 -19.96 87.09 -20.37 Q 87.23 -20.78 87.4 -21.35 Q 87.58 -21.91 87.71 -22.54 Q 87.85 -23.16 87.85 -23.67 L 87.85 -23.67 Q 87.85 -24.3 87.56 -24.51 Q 87.27 -24.73 86.64 -24.73 L 86.64 -24.73 Q 86.33 -24.73 85.98 -24.69 Q 85.63 -24.65 85.2 -24.65 L 85.2 -24.65 Q 84.69 -24.65 84.12 -24.96 Q 83.55 -25.27 83.09 -25.82 Q 82.62 -26.37 82.3 -27.13 Q 81.99 -27.89 81.99 -28.79 Z M 114.61 -32.89 L 114.61 -32.89 Q 114.61 -34.22 115.2 -34.98 Q 115.78 -35.74 116.74 -36.15 Q 117.7 -36.56 118.95 -36.8 Q 120.2 -37.03 121.52 -37.34 L 121.52 -37.34 L 121.52 -38.79 Q 121.52 -40.55 121.29 -42.07 Q 121.05 -43.59 120.76 -44.98 Q 120.47 -46.37 120.23 -47.64 Q 120 -48.91 120 -50.16 L 120 -50.16 Q 120 -51.37 120.18 -52.19 Q 120.35 -53.01 120.78 -53.57 Q 121.21 -54.14 121.93 -54.55 Q 122.66 -54.96 123.75 -55.35 L 123.75 -55.35 Q 124.22 -55.55 124.96 -55.74 Q 125.7 -55.94 126.58 -56.11 Q 127.46 -56.29 128.42 -56.39 Q 129.38 -56.48 130.31 -56.48 L 130.31 -56.48 Q 131.41 -56.48 132.46 -56.31 Q 133.52 -56.13 134.36 -55.49 Q 135.2 -54.84 135.7 -53.55 Q 136.21 -52.27 136.21 -50 L 136.21 -50 Q 136.21 -48.79 136.15 -47.54 Q 136.09 -46.29 135.9 -45.51 L 135.9 -45.51 Q 135.78 -45 135.51 -44.53 Q 135.23 -44.06 134.98 -43.63 Q 134.73 -43.2 134.53 -42.79 Q 134.34 -42.38 134.38 -41.99 L 134.38 -41.99 Q 134.38 -41.56 134.49 -40.92 Q 134.61 -40.27 134.61 -39.84 L 134.61 -39.84 Q 134.61 -39.22 134.38 -38.75 Q 134.14 -38.28 134.14 -37.85 L 134.14 -37.85 Q 134.14 -37.3 134.75 -37.17 Q 135.35 -37.03 136.48 -37.03 L 136.48 -37.03 Q 138.09 -37.03 139.3 -37.17 Q 140.51 -37.3 141.54 -37.48 Q 142.58 -37.66 143.52 -37.79 Q 144.45 -37.93 145.51 -37.93 L 145.51 -37.93 Q 145.98 -37.93 146.45 -37.87 Q 146.91 -37.81 147.27 -37.62 L 147.27 -37.62 Q 148.95 -36.64 148.95 -34.73 L 148.95 -34.73 Q 148.95 -34.02 148.67 -33.26 Q 148.4 -32.5 147.91 -31.84 Q 147.42 -31.17 146.72 -30.74 Q 146.02 -30.31 145.2 -30.31 L 145.2 -30.31 Q 144.8 -30.31 144.41 -30.35 Q 144.02 -30.39 143.67 -30.39 L 143.67 -30.39 Q 143.09 -30.39 142.5 -30.27 Q 141.91 -30.16 141.39 -30.04 Q 140.86 -29.92 140.43 -29.8 Q 140 -29.69 139.73 -29.69 L 139.73 -29.69 Q 139.14 -29.69 138.46 -29.8 Q 137.77 -29.92 137.11 -29.92 L 137.11 -29.92 Q 136.02 -29.92 135.45 -29.69 Q 134.88 -29.45 134.65 -28.95 Q 134.41 -28.44 134.39 -27.64 Q 134.38 -26.84 134.38 -25.74 L 134.38 -25.74 Q 134.38 -23.91 134.22 -21.88 Q 134.06 -19.84 133.87 -17.79 Q 133.67 -15.74 133.52 -13.77 Q 133.36 -11.8 133.36 -10.16 L 133.36 -10.16 Q 133.36 -9.14 133.44 -8.24 Q 133.52 -7.34 133.52 -6.48 L 133.52 -6.48 Q 133.52 -6.25 133.48 -5.96 Q 133.44 -5.66 133.44 -5.43 L 133.44 -5.43 Q 133.36 -5.16 133.03 -4.22 Q 132.7 -3.28 132.23 -2.19 Q 131.76 -1.09 131.27 -0.18 Q 130.78 0.74 130.47 0.98 L 130.47 0.98 Q 130.16 1.17 129.71 1.23 Q 129.26 1.29 128.71 1.29 L 128.71 1.29 Q 126.05 1.29 124.82 0.45 Q 123.59 -0.39 123.59 -2.15 L 123.59 -2.15 Q 123.59 -2.89 123.67 -3.67 Q 123.75 -4.45 123.75 -5.12 L 123.75 -5.12 Q 123.75 -7.3 123.5 -10 Q 123.24 -12.7 122.91 -15.72 Q 122.58 -18.75 122.32 -22.03 Q 122.07 -25.31 122.07 -28.71 L 122.07 -28.71 Q 120.94 -28.48 120 -28.48 L 120 -28.48 Q 118.87 -28.48 117.89 -28.77 Q 116.91 -29.06 116.19 -29.63 Q 115.47 -30.2 115.04 -31.02 Q 114.61 -31.84 114.61 -32.89 Z M 147.66 -33.59 L 147.66 -33.59 Q 147.66 -34.8 148.26 -35.43 Q 148.87 -36.05 149.77 -36.41 Q 150.66 -36.76 151.74 -36.97 Q 152.81 -37.19 153.75 -37.62 L 153.75 -37.62 Q 154.8 -38.09 155.45 -38.57 Q 156.09 -39.06 156.72 -39.47 Q 157.34 -39.88 158.13 -40.14 Q 158.91 -40.39 160.16 -40.39 L 160.16 -40.39 Q 161.52 -40.39 162.32 -40.21 Q 163.13 -40.04 163.52 -39.65 Q 163.91 -39.26 164 -38.65 Q 164.1 -38.05 164.12 -37.21 Q 164.14 -36.37 164.14 -35.29 Q 164.14 -34.22 164.38 -32.89 L 164.38 -32.89 Q 164.8 -30.47 165.2 -27.99 Q 165.59 -25.51 165.82 -23.28 L 165.82 -23.28 Q 166.8 -24.02 167.34 -25.23 Q 167.89 -26.45 168.24 -27.79 Q 168.59 -29.14 168.96 -30.51 Q 169.34 -31.88 170 -32.97 Q 170.66 -34.06 171.78 -34.75 Q 172.89 -35.43 174.77 -35.43 L 174.77 -35.43 Q 175.98 -35.43 176.82 -34.75 Q 177.66 -34.06 178.28 -33.07 Q 178.91 -32.07 179.41 -30.88 Q 179.92 -29.69 180.47 -28.71 L 180.47 -28.71 Q 181.56 -26.68 182.64 -24.96 Q 183.71 -23.24 184.84 -21.76 L 184.84 -21.76 Q 185.16 -23.71 185.25 -25.61 Q 185.35 -27.5 185.35 -29.45 L 185.35 -29.45 Q 185.35 -30.23 185.31 -31.02 Q 185.27 -31.8 185.27 -32.58 L 185.27 -32.58 Q 185.27 -34.45 185.27 -36.58 Q 185.27 -38.71 185.59 -40.55 Q 185.9 -42.38 186.68 -43.59 Q 187.46 -44.8 189.02 -44.8 L 189.02 -44.8 Q 189.77 -44.8 190.7 -44.65 Q 191.64 -44.49 192.56 -44.28 Q 193.48 -44.06 194.2 -43.79 Q 194.92 -43.52 195.27 -43.28 L 195.27 -43.28 Q 195.43 -43.13 195.88 -42.56 Q 196.33 -41.99 196.78 -41.25 Q 197.23 -40.51 197.58 -39.77 Q 197.93 -39.02 197.97 -38.55 L 197.97 -38.55 Q 197.97 -37.85 197.71 -37.21 Q 197.46 -36.56 197.27 -35.59 L 197.27 -35.59 Q 197.03 -34.45 196.88 -32.91 Q 196.72 -31.37 196.45 -29.69 L 196.45 -29.69 Q 196.33 -28.83 196.13 -28.13 Q 195.94 -27.42 195.76 -26.76 Q 195.59 -26.09 195.47 -25.41 Q 195.35 -24.73 195.35 -23.91 L 195.35 -23.91 Q 195.35 -23.09 195.21 -22.5 Q 195.08 -21.91 194.9 -21.41 Q 194.73 -20.9 194.59 -20.43 Q 194.45 -19.96 194.45 -19.38 L 194.45 -19.38 Q 194.45 -18.98 194.49 -18.63 Q 194.53 -18.28 194.53 -17.93 L 194.53 -17.93 Q 194.53 -16.88 194.24 -15.92 Q 193.95 -14.96 193.57 -14.08 Q 193.2 -13.2 192.91 -12.36 Q 192.62 -11.52 192.62 -10.7 L 192.62 -10.7 Q 192.62 -10.27 192.66 -9.88 Q 192.7 -9.49 192.7 -9.1 L 192.7 -9.1 Q 192.7 -7.46 192.19 -6.56 Q 191.68 -5.66 190.82 -5.21 Q 189.96 -4.77 188.87 -4.59 Q 187.77 -4.41 186.6 -4.26 L 186.6 -4.26 Q 185.78 -4.1 184.75 -3.93 Q 183.71 -3.75 182.7 -3.75 L 182.7 -3.75 Q 181.21 -3.75 180.29 -4.51 Q 179.38 -5.27 178.44 -6.84 Q 177.5 -8.4 176.23 -10.76 Q 174.96 -13.13 172.77 -16.33 L 172.77 -16.33 Q 172.03 -15.43 171.66 -14.38 Q 171.29 -13.32 171.05 -12.15 Q 170.82 -10.98 170.63 -9.67 Q 170.43 -8.36 170.04 -6.95 L 170.04 -6.95 Q 169.96 -6.64 169.69 -6.37 Q 169.41 -6.09 169.34 -5.66 L 169.34 -5.66 Q 169.14 -5.12 168.91 -4.49 Q 168.67 -3.87 168.22 -3.3 Q 167.77 -2.73 167.03 -2.36 Q 166.29 -1.99 165.12 -1.99 L 165.12 -1.99 Q 164.45 -1.99 163.63 -2.11 Q 162.81 -2.23 161.56 -2.23 L 161.56 -2.23 Q 160.78 -2.23 160.18 -2.15 Q 159.57 -2.07 159.02 -2.07 L 159.02 -2.07 Q 158.24 -2.07 157.91 -2.34 Q 157.58 -2.62 157.42 -3.16 Q 157.27 -3.71 157.15 -4.53 Q 157.03 -5.35 156.68 -6.48 L 156.68 -6.48 Q 156.37 -7.46 155.94 -8.3 Q 155.51 -9.14 155.27 -9.92 L 155.27 -9.92 Q 154.96 -10.86 154.77 -11.89 Q 154.57 -12.93 154.39 -13.96 Q 154.22 -15 154.02 -15.98 Q 153.83 -16.95 153.52 -17.85 L 153.52 -17.85 Q 153.09 -18.87 152.44 -19.47 Q 151.8 -20.08 151.48 -20.78 L 151.48 -20.78 Q 151.17 -21.52 150.88 -22.5 Q 150.59 -23.48 150.31 -24.53 Q 150.04 -25.59 149.73 -26.66 Q 149.41 -27.73 149.02 -28.71 L 149.02 -28.71 Q 148.91 -29.02 148.67 -29.57 Q 148.44 -30.12 148.22 -30.78 Q 148.01 -31.45 147.83 -32.17 Q 147.66 -32.89 147.66 -33.59 Z M 200.23 -5.12 Q 200.16 -5.31 200.16 -5.49 Q 200.16 -5.66 200.16 -5.86 L 200.16 -5.86 Q 200.16 -6.68 200.27 -7.56 Q 200.39 -8.44 200.55 -9.24 Q 200.7 -10.04 200.82 -10.61 Q 200.94 -11.17 200.94 -11.37 L 200.94 -11.37 Q 200.94 -12.34 200.78 -13.26 Q 200.63 -14.18 200.63 -15.27 L 200.63 -15.27 Q 200.63 -15.78 200.68 -16.35 Q 200.74 -16.91 200.94 -17.54 L 200.94 -17.54 Q 200.94 -17.58 201.13 -18.05 Q 201.33 -18.52 201.58 -19.06 Q 201.84 -19.61 202.09 -20.12 Q 202.34 -20.63 202.46 -20.7 L 202.46 -20.7 Q 202.73 -20.94 203.2 -21.09 Q 203.67 -21.25 204.26 -21.41 Q 204.84 -21.56 205.45 -21.72 Q 206.05 -21.88 206.64 -22.15 L 206.64 -22.15 Q 207.54 -22.58 208.26 -23.24 Q 208.98 -23.91 209.57 -24.14 L 209.57 -24.14 Q 209.96 -24.34 210.64 -24.45 Q 211.33 -24.57 212.07 -24.88 L 212.07 -24.88 Q 212.58 -25.04 213.32 -25.33 Q 214.06 -25.63 214.9 -25.88 Q 215.74 -26.13 216.6 -26.35 Q 217.46 -26.56 218.24 -26.64 L 218.24 -26.64 Q 218.59 -26.64 219.12 -26.52 Q 219.65 -26.41 220.39 -26.41 L 220.39 -26.41 Q 220.94 -26.41 221.72 -26.64 Q 222.5 -26.88 223.59 -26.88 L 223.59 -26.88 Q 224.69 -26.88 225.7 -26.72 Q 226.72 -26.56 227.27 -26.56 L 227.27 -26.56 Q 227.7 -26.56 227.79 -26.82 Q 227.89 -27.07 227.89 -27.42 L 227.89 -27.42 Q 227.89 -28.01 227.66 -28.79 Q 227.42 -29.57 227.11 -30.31 Q 226.8 -31.05 226.52 -31.6 Q 226.25 -32.15 226.13 -32.3 L 226.13 -32.3 Q 225.55 -33.05 224.82 -33.44 Q 224.1 -33.83 223.52 -33.83 L 223.52 -33.83 Q 222.89 -33.83 222.29 -33.67 Q 221.68 -33.52 220.94 -33.52 L 220.94 -33.52 Q 220.39 -33.52 219.82 -33.59 Q 219.26 -33.67 218.71 -33.67 L 218.71 -33.67 Q 217.38 -33.67 215.64 -33.01 Q 213.91 -32.34 212.17 -31.48 Q 210.43 -30.63 208.89 -29.86 Q 207.34 -29.1 206.41 -28.87 L 206.41 -28.87 Q 205.9 -28.75 205.35 -28.65 Q 204.8 -28.55 204.3 -28.55 L 204.3 -28.55 Q 203.98 -28.55 203.42 -28.89 Q 202.85 -29.22 202.3 -29.73 Q 201.76 -30.23 201.35 -30.88 Q 200.94 -31.52 200.94 -32.15 L 200.94 -32.15 Q 200.94 -33.09 201.45 -33.69 Q 201.95 -34.3 202.7 -34.73 Q 203.44 -35.16 204.32 -35.49 Q 205.2 -35.82 205.9 -36.25 L 205.9 -36.25 Q 206.8 -36.8 208.01 -37.54 Q 209.22 -38.28 210.08 -38.95 L 210.08 -38.95 Q 210.98 -39.69 211.37 -40.29 Q 211.76 -40.9 212.3 -41.21 L 212.3 -41.21 Q 212.85 -41.52 214.02 -41.8 Q 215.2 -42.07 216.21 -42.38 L 216.21 -42.38 Q 216.52 -42.5 217.09 -42.73 Q 217.66 -42.97 218.26 -43.16 Q 218.87 -43.36 219.43 -43.52 Q 220 -43.67 220.31 -43.67 L 220.31 -43.67 L 220.47 -43.67 Q 221.21 -43.4 222.15 -43.26 Q 223.09 -43.13 224.12 -43.01 Q 225.16 -42.89 226.19 -42.75 Q 227.23 -42.62 228.16 -42.38 L 228.16 -42.38 Q 228.48 -42.3 228.75 -42.05 Q 229.02 -41.8 229.34 -41.68 L 229.34 -41.68 Q 230.78 -41.25 231.76 -40.8 Q 232.73 -40.35 233.48 -39.39 Q 234.22 -38.44 234.86 -36.66 Q 235.51 -34.88 236.29 -31.84 L 236.29 -31.84 Q 236.45 -31.13 236.88 -30.55 Q 237.3 -29.96 237.5 -29.38 L 237.5 -29.38 Q 237.81 -28.4 237.99 -27.01 Q 238.16 -25.63 238.24 -24.41 L 238.24 -24.41 Q 238.32 -23.52 238.36 -22.6 Q 238.4 -21.68 238.4 -20.7 L 238.4 -20.7 Q 238.4 -17.93 238.13 -15.1 Q 237.85 -12.27 237.5 -9.61 L 237.5 -9.61 Q 237.38 -8.75 237.21 -7.87 Q 237.03 -6.99 237.03 -6.33 L 237.03 -6.33 Q 237.03 -4.88 237.3 -3.54 Q 237.58 -2.19 237.58 -1.05 L 237.58 -1.05 Q 237.58 -0.82 237.27 0 Q 236.95 0.82 236.27 1.68 Q 235.59 2.54 234.51 3.22 Q 233.44 3.91 231.91 3.91 L 231.91 3.91 Q 230.16 3.91 229.55 2.89 Q 228.95 1.88 228.95 0.31 L 228.95 0.31 Q 228.95 -0.78 229.14 -2.05 Q 229.34 -3.32 229.57 -4.65 L 229.57 -4.65 Q 228.67 -4.45 227.79 -3.91 Q 226.91 -3.36 226.13 -2.89 L 226.13 -2.89 Q 224.41 -1.88 222.71 -0.74 Q 221.02 0.39 219.02 1.33 Q 217.03 2.27 214.67 2.89 Q 212.3 3.52 209.26 3.52 L 209.26 3.52 Q 209.18 3.52 208.65 3.54 Q 208.13 3.55 207.42 3.52 Q 206.72 3.48 205.96 3.32 Q 205.2 3.16 204.61 2.81 L 204.61 2.81 Q 203.75 1.95 202.95 0.68 Q 202.15 -0.59 201.54 -1.82 Q 200.94 -3.05 200.59 -3.98 Q 200.23 -4.92 200.23 -5.12 L 200.23 -5.12 Z M 211.09 -13.83 L 211.09 -13.83 Q 211.09 -12.19 211.95 -11.62 Q 212.81 -11.05 214.45 -11.05 L 214.45 -11.05 Q 214.96 -11.05 215.63 -11.23 Q 216.29 -11.41 217.05 -11.64 Q 217.81 -11.88 218.61 -12.13 Q 219.41 -12.38 220.23 -12.58 L 220.23 -12.58 Q 220.82 -12.7 221.5 -12.83 Q 222.19 -12.97 222.87 -13.09 Q 223.55 -13.2 224.16 -13.32 Q 224.77 -13.44 225.2 -13.52 L 225.2 -13.52 Q 225.47 -13.55 226.05 -13.61 Q 226.64 -13.67 227.23 -13.73 Q 227.81 -13.79 228.3 -13.85 Q 228.79 -13.91 228.87 -13.98 L 228.87 -13.98 Q 229.06 -14.18 229.12 -14.86 Q 229.18 -15.55 229.18 -16.41 L 229.18 -16.41 Q 229.18 -17.42 229.14 -18.07 Q 229.1 -18.71 228.98 -19.06 Q 228.87 -19.41 228.67 -19.55 Q 228.48 -19.69 228.16 -19.69 L 228.16 -19.69 Q 227.93 -19.69 227.75 -19.65 Q 227.58 -19.61 227.42 -19.57 L 227.42 -19.57 Q 227.27 -19.49 227.11 -19.45 L 227.11 -19.45 Q 226.48 -19.53 225.96 -19.53 Q 225.43 -19.53 224.88 -19.53 L 224.88 -19.53 Q 223.79 -19.53 222.87 -19.41 Q 221.95 -19.3 221.07 -19.1 Q 220.2 -18.91 219.34 -18.67 Q 218.48 -18.44 217.5 -18.24 L 217.5 -18.24 Q 216.09 -17.89 214.92 -17.77 Q 213.75 -17.66 212.89 -17.3 Q 212.03 -16.95 211.56 -16.19 Q 211.09 -15.43 211.09 -13.83 Z M 242.15 -7.42 L 242.15 -7.42 Q 242.15 -8.71 242.36 -9.98 Q 242.58 -11.25 242.87 -12.54 Q 243.16 -13.83 243.46 -15.14 Q 243.75 -16.45 243.91 -17.85 L 243.91 -17.85 Q 244.1 -19.73 244.24 -21.89 Q 244.38 -24.06 244.38 -25.94 L 244.38 -25.94 Q 244.38 -27.5 244.14 -29.45 L 244.14 -29.45 Q 244.06 -29.92 243.87 -30.39 Q 243.67 -30.86 243.67 -31.29 L 243.67 -31.29 Q 243.67 -31.88 243.81 -32.54 Q 243.95 -33.2 244.12 -33.87 Q 244.3 -34.53 244.45 -35.21 Q 244.61 -35.9 244.65 -36.56 L 244.65 -36.56 Q 244.65 -37.23 244.47 -37.64 Q 244.3 -38.05 244.3 -38.48 L 244.3 -38.48 Q 244.3 -39.57 244.73 -40.18 Q 245.16 -40.78 245.63 -41.04 Q 246.09 -41.29 246.45 -41.33 Q 246.8 -41.37 246.64 -41.37 L 246.64 -41.37 Q 248.13 -41.37 248.96 -40.76 Q 249.8 -40.16 250.21 -39.26 Q 250.63 -38.36 250.74 -37.32 Q 250.86 -36.29 250.94 -35.39 Q 251.02 -34.49 251.15 -33.89 Q 251.29 -33.28 251.76 -33.28 L 251.76 -33.28 Q 252.07 -33.28 252.56 -33.55 Q 253.05 -33.83 253.48 -34.14 Q 253.91 -34.45 254.14 -34.67 Q 254.38 -34.88 254.22 -34.73 L 254.22 -34.73 L 254.14 -34.65 Q 254.18 -34.65 254.22 -34.69 L 254.22 -34.69 Q 254.34 -34.8 254.49 -34.88 L 254.49 -34.88 Q 254.49 -34.88 254.34 -34.8 L 254.34 -34.8 L 254.3 -34.8 Q 254.8 -35.2 255.31 -35.59 L 255.31 -35.59 Q 255.74 -35.9 256.25 -36.27 Q 256.76 -36.64 257.19 -36.88 L 257.19 -36.88 Q 257.85 -37.3 258.67 -37.48 Q 259.49 -37.66 260.16 -38.09 L 260.16 -38.09 Q 260.74 -38.52 261.33 -39.02 Q 261.91 -39.53 262.38 -39.84 L 262.38 -39.84 Q 262.85 -40.04 263.54 -40.23 Q 264.22 -40.43 265 -40.57 Q 265.78 -40.7 266.52 -40.8 Q 267.27 -40.9 267.85 -40.9 L 267.85 -40.9 Q 268.4 -40.9 268.79 -40.72 Q 269.18 -40.55 269.53 -40.27 Q 269.88 -40 270.29 -39.73 Q 270.7 -39.45 271.29 -39.3 L 271.29 -39.3 Q 272.03 -39.06 273.01 -38.96 Q 273.98 -38.87 274.84 -38.52 L 274.84 -38.52 Q 275.66 -38.13 276.25 -37.34 L 276.25 -37.34 Q 276.8 -36.6 276.8 -35.08 L 276.8 -35.08 Q 276.8 -34.96 276.8 -34.88 L 276.8 -34.88 Q 276.8 -34.14 276.95 -33.55 Q 277.11 -32.97 277.29 -32.5 Q 277.46 -32.03 277.62 -31.6 Q 277.77 -31.17 277.77 -30.7 L 277.77 -30.7 Q 277.77 -30.27 277.71 -29.79 Q 277.66 -29.3 277.66 -28.79 L 277.66 -28.79 Q 277.66 -28.01 277.95 -27.13 Q 278.24 -26.25 278.24 -25.74 L 278.24 -25.74 Q 278.2 -25.35 278.03 -25.1 Q 277.85 -24.84 277.64 -24.51 Q 277.42 -24.18 277.27 -23.71 Q 277.11 -23.24 277.11 -22.46 L 277.11 -22.46 Q 277.11 -22.15 277.15 -21.91 Q 277.19 -21.68 277.19 -21.37 L 277.19 -21.37 Q 277.19 -20.2 276.66 -19.55 Q 276.13 -18.91 275.25 -18.52 Q 274.38 -18.13 273.2 -17.91 Q 272.03 -17.7 270.78 -17.34 L 270.78 -17.34 Q 269.88 -17.11 268.87 -16.8 Q 267.85 -16.48 266.88 -16.48 L 266.88 -16.48 Q 265.23 -16.48 264.55 -17.42 Q 263.87 -18.36 263.67 -19.77 L 263.67 -19.77 Q 263.52 -20.78 263.52 -21.91 L 263.52 -21.91 Q 263.52 -22.38 263.55 -22.85 L 263.55 -22.85 Q 263.59 -23.59 263.59 -24.26 L 263.59 -24.26 Q 263.59 -25.16 263.52 -25.94 L 263.52 -25.94 Q 263.44 -27.34 262.95 -28.28 Q 262.46 -29.22 261.13 -29.22 L 261.13 -29.22 Q 260.59 -29.22 260 -29.02 Q 259.41 -28.83 258.89 -28.57 Q 258.36 -28.32 257.91 -28.07 Q 257.46 -27.81 257.19 -27.7 L 257.19 -27.7 Q 256.6 -27.42 255.84 -27.13 Q 255.08 -26.84 254.38 -26.5 Q 253.67 -26.17 253.18 -25.76 Q 252.7 -25.35 252.7 -24.8 L 252.7 -24.8 Q 252.7 -23.91 253.11 -22.52 Q 253.52 -21.13 253.98 -19.75 Q 254.45 -18.36 254.86 -17.29 Q 255.27 -16.21 255.27 -15.94 L 255.27 -15.94 Q 255.27 -15.66 255.16 -15.41 Q 255.04 -15.16 255.04 -14.8 L 255.04 -14.8 Q 255.04 -14.26 255.18 -13.63 Q 255.31 -13.01 255.49 -12.32 Q 255.66 -11.64 255.82 -10.92 Q 255.98 -10.2 255.98 -9.45 L 255.98 -9.45 Q 255.98 -9.22 255.94 -8.46 Q 255.9 -7.7 255.82 -6.82 Q 255.74 -5.94 255.61 -5.14 Q 255.47 -4.34 255.27 -3.98 L 255.27 -3.98 Q 255.08 -3.67 254.8 -3.52 Q 254.53 -3.36 254.22 -3.26 Q 253.91 -3.16 253.55 -3.07 Q 253.2 -2.97 252.81 -2.73 L 252.81 -2.73 Q 251.95 -2.19 251.56 -1.74 Q 251.17 -1.29 250.8 -0.96 Q 250.43 -0.63 249.86 -0.43 Q 249.3 -0.23 248.09 -0.23 L 248.09 -0.23 Q 246.41 -0.23 245.27 -0.64 Q 244.14 -1.05 243.44 -1.93 Q 242.73 -2.81 242.44 -4.18 Q 242.15 -5.55 242.15 -7.42 Z M 279.84 -27.85 L 279.84 -27.85 Q 279.84 -28.16 280.14 -28.83 Q 280.43 -29.49 280.55 -30.08 L 280.55 -30.08 Q 280.74 -30.94 280.72 -31.78 Q 280.7 -32.62 280.78 -32.81 L 280.78 -32.81 Q 280.9 -33.09 281.27 -33.46 Q 281.64 -33.83 282.09 -34.26 Q 282.54 -34.69 282.99 -35.14 Q 283.44 -35.59 283.75 -36.02 L 283.75 -36.02 Q 284.02 -36.41 285.1 -36.97 Q 286.17 -37.54 287.77 -38.2 Q 289.38 -38.87 291.37 -39.51 Q 293.36 -40.16 295.45 -40.68 Q 297.54 -41.21 299.63 -41.54 Q 301.72 -41.88 303.52 -41.91 L 303.52 -41.91 Q 304.26 -41.91 305.18 -41.64 Q 306.09 -41.37 307.01 -40.92 Q 307.93 -40.47 308.79 -39.88 Q 309.65 -39.3 310.23 -38.71 L 310.23 -38.71 Q 310.55 -38.4 310.82 -37.68 Q 311.09 -36.95 311.45 -36.48 L 311.45 -36.48 Q 312.3 -35.39 312.64 -34.84 Q 312.97 -34.3 313.07 -33.87 Q 313.16 -33.44 313.13 -32.93 Q 313.09 -32.42 313.2 -31.37 L 313.2 -31.37 Q 313.28 -30.55 313.32 -30 Q 313.36 -29.45 313.36 -28.98 Q 313.36 -28.52 313.36 -28.09 Q 313.36 -27.66 313.36 -27.11 L 313.36 -27.11 Q 313.36 -25.98 312.77 -25.27 Q 312.19 -24.57 311.17 -23.98 Q 310.16 -23.4 308.73 -22.85 Q 307.3 -22.3 305.66 -21.52 L 305.66 -21.52 Q 304.3 -20.86 302.73 -20.59 Q 301.17 -20.31 299.84 -20.31 L 299.84 -20.31 Q 299.65 -20.31 299.53 -20.31 Q 299.41 -20.31 299.22 -20.39 L 299.22 -20.39 Q 298.95 -20.43 298.28 -20.23 Q 297.62 -20.04 296.76 -19.79 Q 295.9 -19.53 294.9 -19.32 Q 293.91 -19.1 292.97 -19.1 L 292.97 -19.1 Q 292.34 -19.1 291.78 -18.93 Q 291.21 -18.75 290.78 -18.48 Q 290.35 -18.2 290.1 -17.93 Q 289.84 -17.66 289.84 -17.42 L 289.84 -17.42 Q 289.84 -16.05 290.33 -15.23 Q 290.82 -14.41 291.41 -13.98 L 291.41 -13.98 Q 292.11 -13.48 292.97 -13.28 L 292.97 -13.28 Q 293.95 -12.85 294.84 -12.71 Q 295.74 -12.58 296.64 -12.58 L 296.64 -12.58 Q 298.13 -12.58 299.75 -12.81 Q 301.37 -13.05 303.44 -13.05 L 303.44 -13.05 Q 304.41 -13.05 305.1 -12.81 Q 305.78 -12.58 306.56 -12.58 L 306.56 -12.58 Q 307.38 -12.58 308.2 -12.73 Q 309.02 -12.89 309.77 -13.09 Q 310.51 -13.28 311.19 -13.44 Q 311.88 -13.59 312.46 -13.59 L 312.46 -13.59 Q 313.98 -13.59 314.67 -12.56 Q 315.35 -11.52 315.66 -9.38 L 315.66 -9.38 Q 315.74 -8.59 315.84 -7.93 Q 315.94 -7.27 315.94 -6.72 L 315.94 -6.72 Q 315.94 -6.09 315.86 -5.78 Q 315.78 -5.47 315.61 -5.23 Q 315.43 -5 315.14 -4.73 Q 314.84 -4.45 314.41 -3.91 L 314.41 -3.91 Q 313.95 -3.16 313.5 -2.34 Q 313.05 -1.52 312.44 -0.86 Q 311.84 -0.2 311.04 0.25 Q 310.23 0.7 309.1 0.7 L 309.1 0.7 Q 308.4 0.7 307.6 0.61 Q 306.8 0.51 306 0.39 Q 305.2 0.27 304.43 0.18 Q 303.67 0.08 303.05 0.08 L 303.05 0.08 Q 300.35 0.08 297.6 -0.02 Q 294.84 -0.12 292.38 -0.7 L 292.38 -0.7 Q 291.56 -0.94 290.66 -1.11 Q 289.77 -1.29 288.87 -1.52 Q 287.97 -1.76 287.15 -2.09 Q 286.33 -2.42 285.74 -2.89 L 285.74 -2.89 Q 284.06 -4.57 283.07 -6.56 Q 282.07 -8.55 281.5 -11.05 Q 280.94 -13.55 280.7 -16.6 Q 280.47 -19.65 280.31 -23.44 L 280.31 -23.44 Q 280.23 -24.77 280.04 -25.98 Q 279.84 -27.19 279.84 -27.85 Z M 288.87 -28.01 L 288.87 -28.01 Q 288.87 -26.37 289.08 -25.47 Q 289.3 -24.57 289.84 -24.57 L 289.84 -24.57 Q 290.2 -24.57 290.63 -24.69 Q 291.05 -24.8 291.46 -24.94 Q 291.88 -25.08 292.21 -25.2 Q 292.54 -25.31 292.73 -25.35 L 292.73 -25.35 Q 293.59 -25.51 294.84 -25.59 Q 296.09 -25.66 297.29 -25.84 Q 298.48 -26.02 299.39 -26.35 Q 300.31 -26.68 300.55 -27.34 L 300.55 -27.34 Q 300.63 -27.54 300.66 -27.77 Q 300.7 -28.01 300.7 -28.24 L 300.7 -28.24 Q 300.7 -29.41 300.49 -30.33 Q 300.27 -31.25 299.98 -31.89 Q 299.69 -32.54 299.34 -32.87 Q 298.98 -33.2 298.71 -33.2 L 298.71 -33.2 Q 297.97 -33.2 296.48 -32.91 Q 295 -32.62 293.48 -32.19 Q 291.95 -31.76 290.72 -31.25 Q 289.49 -30.74 289.22 -30.31 L 289.22 -30.31 Q 289.02 -30 288.95 -29.39 Q 288.87 -28.79 288.87 -28.01 Z M 318.95 -6.09 L 318.95 -6.09 Q 318.95 -7.58 319.32 -9.73 Q 319.69 -11.88 319.69 -14.34 L 319.69 -14.34 Q 319.69 -15.27 319.8 -15.92 Q 319.92 -16.56 320.1 -17.13 Q 320.27 -17.7 320.47 -18.26 Q 320.66 -18.83 320.78 -19.61 L 320.78 -19.61 Q 320.98 -20.78 321.07 -22.15 Q 321.17 -23.52 321.25 -24.98 Q 321.33 -26.45 321.39 -27.97 Q 321.45 -29.49 321.52 -30.98 L 321.52 -30.98 Q 321.56 -31.68 321.7 -32.34 Q 321.84 -33.01 321.97 -33.71 Q 322.11 -34.41 322.21 -35.16 Q 322.3 -35.9 322.3 -36.8 L 322.3 -36.8 Q 322.3 -37.62 322.17 -38.32 Q 322.03 -39.02 321.88 -39.77 Q 321.72 -40.51 321.58 -41.35 Q 321.45 -42.19 321.45 -43.28 L 321.45 -43.28 Q 321.45 -43.98 321.66 -44.82 Q 321.88 -45.66 322.19 -46.58 Q 322.5 -47.5 322.85 -48.48 Q 323.2 -49.45 323.52 -50.47 L 323.52 -50.47 Q 323.67 -50.98 323.71 -51.48 Q 323.75 -51.99 323.75 -52.44 Q 323.75 -52.89 323.79 -53.2 Q 323.83 -53.52 323.98 -53.67 L 323.98 -53.67 Q 324.06 -53.83 324.49 -54.02 Q 324.92 -54.22 325.41 -54.43 Q 325.9 -54.65 326.35 -54.79 Q 326.8 -54.92 326.95 -54.96 L 326.95 -54.96 Q 327.5 -54.96 327.95 -54.63 Q 328.4 -54.3 329.18 -54.14 L 329.18 -54.14 Q 330.31 -53.91 331.43 -53.83 Q 332.54 -53.75 333.5 -53.63 Q 334.45 -53.52 335.25 -53.28 Q 336.05 -53.05 336.56 -52.46 L 336.56 -52.46 Q 337.11 -51.88 337.58 -50.96 Q 338.05 -50.04 338.5 -49.02 Q 338.95 -48.01 339.39 -46.95 Q 339.84 -45.9 340.31 -45.04 L 340.31 -45.04 Q 340.74 -44.26 341.33 -43.61 Q 341.91 -42.97 342.23 -42.3 L 342.23 -42.3 Q 342.46 -41.88 342.5 -41.31 Q 342.54 -40.74 342.81 -40.31 L 342.81 -40.31 Q 342.93 -40.04 343.55 -38.95 Q 344.18 -37.85 344.94 -36.62 Q 345.7 -35.39 346.35 -34.41 Q 346.99 -33.44 347.19 -33.44 L 347.19 -33.44 Q 347.66 -33.44 348.07 -34.1 Q 348.48 -34.77 348.87 -35.74 Q 349.26 -36.72 349.69 -37.83 Q 350.12 -38.95 350.63 -39.84 L 350.63 -39.84 Q 351.25 -40.86 352.03 -41.78 Q 352.81 -42.7 353.36 -43.83 L 353.36 -43.83 Q 353.71 -44.57 354.08 -45.74 Q 354.45 -46.91 354.88 -48.22 Q 355.31 -49.53 355.84 -50.86 Q 356.37 -52.19 357.03 -53.26 Q 357.7 -54.34 358.52 -55 Q 359.34 -55.66 360.39 -55.66 L 360.39 -55.66 Q 360.9 -55.66 361.25 -55.53 Q 361.6 -55.39 361.97 -55.16 Q 362.34 -54.92 362.81 -54.65 Q 363.28 -54.38 363.98 -54.14 L 363.98 -54.14 Q 364.65 -53.95 365.33 -53.83 Q 366.02 -53.71 366.64 -53.59 Q 367.27 -53.48 367.79 -53.3 Q 368.32 -53.13 368.71 -52.73 L 368.71 -52.73 Q 369.1 -52.3 369.34 -51.64 Q 369.57 -50.98 369.71 -50.2 Q 369.84 -49.41 369.9 -48.52 Q 369.96 -47.62 370 -46.72 L 370 -46.72 Q 370 -45.39 369.92 -44.16 Q 369.84 -42.93 369.84 -41.84 L 369.84 -41.84 Q 369.84 -40.94 369.98 -40.27 Q 370.12 -39.61 370.29 -38.93 Q 370.47 -38.24 370.63 -37.38 Q 370.78 -36.52 370.78 -35.27 L 370.78 -35.27 Q 370.78 -34.06 370.7 -32.75 Q 370.63 -31.45 370.63 -30.23 L 370.63 -30.23 Q 370.63 -28.75 370.84 -27.87 Q 371.05 -26.99 371.37 -26.41 Q 371.68 -25.82 372.03 -25.31 Q 372.38 -24.8 372.66 -24.06 L 372.66 -24.06 Q 372.77 -23.75 372.89 -23.16 Q 373.01 -22.58 373.13 -21.93 Q 373.24 -21.29 373.32 -20.66 Q 373.4 -20.04 373.44 -19.61 L 373.44 -19.61 Q 373.44 -17.42 373.13 -15 Q 372.81 -12.58 372.25 -10.43 Q 371.68 -8.28 370.84 -6.7 Q 370 -5.12 368.95 -4.57 L 368.95 -4.57 Q 368.52 -4.34 367.71 -4.08 Q 366.91 -3.83 365.92 -3.63 Q 364.92 -3.44 363.87 -3.32 Q 362.81 -3.2 361.84 -3.2 L 361.84 -3.2 Q 361.21 -3.2 360.31 -3.44 Q 359.41 -3.67 358.59 -4.16 Q 357.77 -4.65 357.21 -5.37 Q 356.64 -6.09 356.64 -7.03 L 356.64 -7.03 Q 356.64 -7.81 356.6 -8.63 Q 356.56 -9.45 356.56 -10.23 L 356.56 -10.23 Q 356.56 -12.77 356.64 -15.49 Q 356.72 -18.2 356.72 -21.05 L 356.72 -21.05 Q 356.72 -23.71 356.58 -26.41 Q 356.45 -29.1 356.09 -31.91 L 356.09 -31.91 Q 355.2 -31.33 354.47 -30.39 Q 353.75 -29.45 353.11 -28.38 Q 352.46 -27.3 351.88 -26.17 Q 351.29 -25.04 350.63 -24.06 L 350.63 -24.06 Q 350.04 -23.16 349.22 -22.54 Q 348.4 -21.91 347.93 -21.13 L 347.93 -21.13 Q 347.46 -20.35 347.38 -19.61 Q 347.3 -18.87 346.99 -18.3 Q 346.68 -17.73 345.86 -17.42 L 345.86 -17.42 Q 345.12 -17.11 343.52 -17.11 L 343.52 -17.11 Q 343.32 -17.11 343.13 -17.11 L 343.13 -17.11 Q 341.91 -17.11 341.23 -17.54 Q 340.55 -17.97 340.04 -18.73 Q 339.53 -19.49 339.06 -20.47 Q 338.59 -21.45 337.85 -22.58 L 337.85 -22.58 Q 337.42 -23.16 336.93 -23.59 Q 336.45 -24.02 336.09 -24.57 L 336.09 -24.57 Q 335.63 -25.31 335.12 -26.25 Q 334.61 -27.19 334.14 -28.16 Q 333.67 -29.14 333.22 -30.12 Q 332.77 -31.09 332.38 -31.91 L 332.38 -31.91 Q 332.46 -30.43 332.5 -28.87 Q 332.54 -27.3 332.54 -25.59 L 332.54 -25.59 L 332.54 -21.13 Q 332.54 -19.69 332.56 -18.24 Q 332.58 -16.8 332.66 -15.43 L 332.66 -15.43 Q 332.7 -14.61 332.85 -13.75 Q 333.01 -12.89 333.18 -11.99 Q 333.36 -11.09 333.52 -10.2 Q 333.67 -9.3 333.67 -8.48 L 333.67 -8.48 Q 333.67 -7.66 333.54 -7.27 Q 333.4 -6.88 333.13 -6.58 Q 332.85 -6.29 332.44 -5.98 Q 332.03 -5.66 331.45 -5.04 L 331.45 -5.04 Q 330.86 -4.41 330.37 -3.71 Q 329.88 -3.01 329.3 -2.42 Q 328.71 -1.84 328.01 -1.45 Q 327.3 -1.05 326.33 -1.05 L 326.33 -1.05 Q 325.08 -1.05 323.79 -1.41 Q 322.5 -1.76 321.41 -2.4 Q 320.31 -3.05 319.63 -3.98 Q 318.95 -4.92 318.95 -6.09 Z M 376.48 -5.12 Q 376.41 -5.31 376.41 -5.49 Q 376.41 -5.66 376.41 -5.86 L 376.41 -5.86 Q 376.41 -6.68 376.52 -7.56 Q 376.64 -8.44 376.8 -9.24 Q 376.95 -10.04 377.07 -10.61 Q 377.19 -11.17 377.19 -11.37 L 377.19 -11.37 Q 377.19 -12.34 377.03 -13.26 Q 376.88 -14.18 376.88 -15.27 L 376.88 -15.27 Q 376.88 -15.78 376.93 -16.35 Q 376.99 -16.91 377.19 -17.54 L 377.19 -17.54 Q 377.19 -17.58 377.38 -18.05 Q 377.58 -18.52 377.83 -19.06 Q 378.09 -19.61 378.34 -20.12 Q 378.59 -20.63 378.71 -20.7 L 378.71 -20.7 Q 378.98 -20.94 379.45 -21.09 Q 379.92 -21.25 380.51 -21.41 Q 381.09 -21.56 381.7 -21.72 Q 382.3 -21.88 382.89 -22.15 L 382.89 -22.15 Q 383.79 -22.58 384.51 -23.24 Q 385.23 -23.91 385.82 -24.14 L 385.82 -24.14 Q 386.21 -24.34 386.89 -24.45 Q 387.58 -24.57 388.32 -24.88 L 388.32 -24.88 Q 388.83 -25.04 389.57 -25.33 Q 390.31 -25.63 391.15 -25.88 Q 391.99 -26.13 392.85 -26.35 Q 393.71 -26.56 394.49 -26.64 L 394.49 -26.64 Q 394.84 -26.64 395.37 -26.52 Q 395.9 -26.41 396.64 -26.41 L 396.64 -26.41 Q 397.19 -26.41 397.97 -26.64 Q 398.75 -26.88 399.84 -26.88 L 399.84 -26.88 Q 400.94 -26.88 401.95 -26.72 Q 402.97 -26.56 403.52 -26.56 L 403.52 -26.56 Q 403.95 -26.56 404.04 -26.82 Q 404.14 -27.07 404.14 -27.42 L 404.14 -27.42 Q 404.14 -28.01 403.91 -28.79 Q 403.67 -29.57 403.36 -30.31 Q 403.05 -31.05 402.77 -31.6 Q 402.5 -32.15 402.38 -32.3 L 402.38 -32.3 Q 401.8 -33.05 401.07 -33.44 Q 400.35 -33.83 399.77 -33.83 L 399.77 -33.83 Q 399.14 -33.83 398.54 -33.67 Q 397.93 -33.52 397.19 -33.52 L 397.19 -33.52 Q 396.64 -33.52 396.07 -33.59 Q 395.51 -33.67 394.96 -33.67 L 394.96 -33.67 Q 393.63 -33.67 391.89 -33.01 Q 390.16 -32.34 388.42 -31.48 Q 386.68 -30.63 385.14 -29.86 Q 383.59 -29.1 382.66 -28.87 L 382.66 -28.87 Q 382.15 -28.75 381.6 -28.65 Q 381.05 -28.55 380.55 -28.55 L 380.55 -28.55 Q 380.23 -28.55 379.67 -28.89 Q 379.1 -29.22 378.55 -29.73 Q 378.01 -30.23 377.6 -30.88 Q 377.19 -31.52 377.19 -32.15 L 377.19 -32.15 Q 377.19 -33.09 377.7 -33.69 Q 378.2 -34.3 378.95 -34.73 Q 379.69 -35.16 380.57 -35.49 Q 381.45 -35.82 382.15 -36.25 L 382.15 -36.25 Q 383.05 -36.8 384.26 -37.54 Q 385.47 -38.28 386.33 -38.95 L 386.33 -38.95 Q 387.23 -39.69 387.62 -40.29 Q 388.01 -40.9 388.55 -41.21 L 388.55 -41.21 Q 389.1 -41.52 390.27 -41.8 Q 391.45 -42.07 392.46 -42.38 L 392.46 -42.38 Q 392.77 -42.5 393.34 -42.73 Q 393.91 -42.97 394.51 -43.16 Q 395.12 -43.36 395.68 -43.52 Q 396.25 -43.67 396.56 -43.67 L 396.56 -43.67 L 396.72 -43.67 Q 397.46 -43.4 398.4 -43.26 Q 399.34 -43.13 400.37 -43.01 Q 401.41 -42.89 402.44 -42.75 Q 403.48 -42.62 404.41 -42.38 L 404.41 -42.38 Q 404.73 -42.3 405 -42.05 Q 405.27 -41.8 405.59 -41.68 L 405.59 -41.68 Q 407.03 -41.25 408.01 -40.8 Q 408.98 -40.35 409.73 -39.39 Q 410.47 -38.44 411.11 -36.66 Q 411.76 -34.88 412.54 -31.84 L 412.54 -31.84 Q 412.7 -31.13 413.13 -30.55 Q 413.55 -29.96 413.75 -29.38 L 413.75 -29.38 Q 414.06 -28.4 414.24 -27.01 Q 414.41 -25.63 414.49 -24.41 L 414.49 -24.41 Q 414.57 -23.52 414.61 -22.6 Q 414.65 -21.68 414.65 -20.7 L 414.65 -20.7 Q 414.65 -17.93 414.38 -15.1 Q 414.1 -12.27 413.75 -9.61 L 413.75 -9.61 Q 413.63 -8.75 413.46 -7.87 Q 413.28 -6.99 413.28 -6.33 L 413.28 -6.33 Q 413.28 -4.88 413.55 -3.54 Q 413.83 -2.19 413.83 -1.05 L 413.83 -1.05 Q 413.83 -0.82 413.52 0 Q 413.2 0.82 412.52 1.68 Q 411.84 2.54 410.76 3.22 Q 409.69 3.91 408.16 3.91 L 408.16 3.91 Q 406.41 3.91 405.8 2.89 Q 405.2 1.88 405.2 0.31 L 405.2 0.31 Q 405.2 -0.78 405.39 -2.05 Q 405.59 -3.32 405.82 -4.65 L 405.82 -4.65 Q 404.92 -4.45 404.04 -3.91 Q 403.16 -3.36 402.38 -2.89 L 402.38 -2.89 Q 400.66 -1.88 398.96 -0.74 Q 397.27 0.39 395.27 1.33 Q 393.28 2.27 390.92 2.89 Q 388.55 3.52 385.51 3.52 L 385.51 3.52 Q 385.43 3.52 384.9 3.54 Q 384.38 3.55 383.67 3.52 Q 382.97 3.48 382.21 3.32 Q 381.45 3.16 380.86 2.81 L 380.86 2.81 Q 380 1.95 379.2 0.68 Q 378.4 -0.59 377.79 -1.82 Q 377.19 -3.05 376.84 -3.98 Q 376.48 -4.92 376.48 -5.12 L 376.48 -5.12 Z M 387.34 -13.83 L 387.34 -13.83 Q 387.34 -12.19 388.2 -11.62 Q 389.06 -11.05 390.7 -11.05 L 390.7 -11.05 Q 391.21 -11.05 391.88 -11.23 Q 392.54 -11.41 393.3 -11.64 Q 394.06 -11.88 394.86 -12.13 Q 395.66 -12.38 396.48 -12.58 L 396.48 -12.58 Q 397.07 -12.7 397.75 -12.83 Q 398.44 -12.97 399.12 -13.09 Q 399.8 -13.2 400.41 -13.32 Q 401.02 -13.44 401.45 -13.52 L 401.45 -13.52 Q 401.72 -13.55 402.3 -13.61 Q 402.89 -13.67 403.48 -13.73 Q 404.06 -13.79 404.55 -13.85 Q 405.04 -13.91 405.12 -13.98 L 405.12 -13.98 Q 405.31 -14.18 405.37 -14.86 Q 405.43 -15.55 405.43 -16.41 L 405.43 -16.41 Q 405.43 -17.42 405.39 -18.07 Q 405.35 -18.71 405.23 -19.06 Q 405.12 -19.41 404.92 -19.55 Q 404.73 -19.69 404.41 -19.69 L 404.41 -19.69 Q 404.18 -19.69 404 -19.65 Q 403.83 -19.61 403.67 -19.57 L 403.67 -19.57 Q 403.52 -19.49 403.36 -19.45 L 403.36 -19.45 Q 402.73 -19.53 402.21 -19.53 Q 401.68 -19.53 401.13 -19.53 L 401.13 -19.53 Q 400.04 -19.53 399.12 -19.41 Q 398.2 -19.3 397.32 -19.1 Q 396.45 -18.91 395.59 -18.67 Q 394.73 -18.44 393.75 -18.24 L 393.75 -18.24 Q 392.34 -17.89 391.17 -17.77 Q 390 -17.66 389.14 -17.3 Q 388.28 -16.95 387.81 -16.19 Q 387.34 -15.43 387.34 -13.83 Z M 418.71 -7.77 L 418.71 -7.77 Q 418.71 -9.06 418.77 -10.37 Q 418.83 -11.68 418.91 -12.87 Q 418.98 -14.06 419.1 -15.08 Q 419.22 -16.09 419.3 -16.8 L 419.3 -16.8 Q 419.38 -17.42 419.61 -17.73 Q 419.84 -18.05 419.84 -18.63 L 419.84 -18.63 Q 419.84 -19.84 419.65 -21.11 Q 419.45 -22.38 419.45 -23.52 L 419.45 -23.52 Q 419.45 -24.34 419.75 -24.96 Q 420.04 -25.59 420.37 -26.27 Q 420.7 -26.95 421 -27.81 Q 421.29 -28.67 421.29 -29.92 L 421.29 -29.92 L 421.29 -32.07 Q 421.29 -33.28 421.43 -34.61 Q 421.56 -35.94 421.74 -37.21 Q 421.91 -38.48 422.07 -39.67 Q 422.23 -40.86 422.23 -41.84 L 422.23 -41.84 Q 422.23 -42.19 422.15 -42.89 Q 422.07 -43.59 421.99 -44.47 Q 421.91 -45.35 421.84 -46.33 Q 421.76 -47.3 421.76 -48.16 L 421.76 -48.16 Q 421.76 -49.61 422.11 -50.27 Q 422.46 -50.94 422.97 -51.17 Q 423.48 -51.41 424.08 -51.39 Q 424.69 -51.37 425.2 -51.45 L 425.2 -51.45 Q 425.39 -51.45 425.98 -51.41 Q 426.56 -51.37 427.21 -51.29 Q 427.85 -51.21 428.44 -51.04 Q 429.02 -50.86 429.22 -50.63 L 429.22 -50.63 Q 429.34 -50.47 429.45 -49.65 Q 429.57 -48.83 429.69 -47.87 Q 429.8 -46.91 429.86 -46.05 Q 429.92 -45.2 429.92 -44.96 L 429.92 -44.96 Q 429.88 -44.61 429.69 -44.28 Q 429.49 -43.95 429.26 -43.57 Q 429.02 -43.2 428.83 -42.75 Q 428.63 -42.3 428.63 -41.68 L 428.63 -41.68 Q 428.63 -40.78 428.75 -39.61 Q 428.87 -38.44 428.95 -37.34 L 428.95 -37.34 Q 428.95 -36.88 428.83 -36.41 Q 428.71 -35.94 428.71 -35.51 L 428.71 -35.51 Q 428.71 -34.8 428.96 -34.3 Q 429.22 -33.79 429.22 -33.13 L 429.22 -33.13 Q 429.22 -32.23 429.14 -31.56 Q 429.06 -30.9 429.06 -30.23 L 429.06 -30.23 Q 429.06 -29.73 429.08 -29.16 Q 429.1 -28.59 429.2 -28.13 Q 429.3 -27.66 429.45 -27.34 Q 429.61 -27.03 429.92 -27.03 L 429.92 -27.03 Q 430.39 -27.03 430.98 -27.25 Q 431.56 -27.46 432.17 -27.77 Q 432.77 -28.09 433.36 -28.42 Q 433.95 -28.75 434.41 -28.95 L 434.41 -28.95 Q 436.02 -29.69 437.42 -30.23 Q 438.83 -30.78 440.2 -31.31 Q 441.56 -31.84 443.03 -32.36 Q 444.49 -32.89 446.25 -33.59 L 446.25 -33.59 Q 446.91 -33.91 447.54 -34.24 Q 448.16 -34.57 448.48 -34.65 L 448.48 -34.65 Q 448.91 -34.65 449.49 -34.39 Q 450.08 -34.14 450.63 -34.14 L 450.63 -34.14 Q 451.17 -34.14 451.78 -34.28 Q 452.38 -34.41 452.81 -34.41 L 452.81 -34.41 Q 453.44 -34.41 453.95 -33.96 Q 454.45 -33.52 454.82 -32.85 Q 455.2 -32.19 455.39 -31.37 Q 455.59 -30.55 455.59 -29.84 L 455.59 -29.84 Q 455.59 -28.52 455.12 -27.7 L 455.12 -27.7 Q 454.73 -26.95 453.96 -26.5 Q 453.2 -26.05 452.29 -25.78 Q 451.37 -25.51 450.41 -25.35 Q 449.45 -25.2 448.67 -25.06 Q 447.89 -24.92 447.38 -24.77 Q 446.88 -24.61 446.88 -24.34 L 446.88 -24.34 Q 446.88 -23.2 447.32 -22.03 Q 447.77 -20.86 448.46 -19.71 Q 449.14 -18.55 449.92 -17.52 Q 450.7 -16.48 451.39 -15.64 Q 452.07 -14.8 452.52 -14.2 Q 452.97 -13.59 452.97 -13.36 L 452.97 -13.36 Q 452.97 -13.09 452.89 -12.85 Q 452.81 -12.62 452.7 -12.32 Q 452.58 -12.03 452.5 -11.64 Q 452.42 -11.25 452.42 -10.7 L 452.42 -10.7 Q 452.42 -9.96 452.64 -9.32 Q 452.85 -8.67 453.09 -8.11 Q 453.32 -7.54 453.54 -7.03 Q 453.75 -6.52 453.75 -6.02 L 453.75 -6.02 Q 453.75 -5.47 453.55 -5.2 Q 453.36 -4.92 452.99 -4.75 Q 452.62 -4.57 452.11 -4.41 Q 451.6 -4.26 450.98 -3.98 L 450.98 -3.98 Q 450.39 -3.71 449.57 -3.36 Q 448.75 -3.01 447.81 -2.68 Q 446.88 -2.34 445.88 -2.13 Q 444.88 -1.91 443.91 -1.91 L 443.91 -1.91 Q 442.23 -1.91 441.09 -3.11 Q 439.96 -4.3 439.1 -6.13 Q 438.24 -7.97 437.56 -10.16 Q 436.88 -12.34 436.09 -14.34 L 436.09 -14.34 Q 435.82 -15 435.51 -16.04 Q 435.2 -17.07 434.9 -18.09 Q 434.61 -19.1 434.36 -19.88 Q 434.1 -20.66 433.91 -20.78 L 433.91 -20.78 Q 433.98 -20.74 433.5 -20.68 Q 433.01 -20.63 432.4 -20.57 Q 431.8 -20.51 431.25 -20.43 Q 430.7 -20.35 430.63 -20.31 L 430.63 -20.31 Q 430.51 -20.2 430.45 -19.94 Q 430.39 -19.69 430.39 -19.38 L 430.39 -19.38 Q 430.39 -18.91 430.47 -18.38 Q 430.55 -17.85 430.64 -17.36 Q 430.74 -16.88 430.8 -16.46 Q 430.86 -16.05 430.9 -15.86 L 430.9 -15.86 Q 430.98 -14.57 431.02 -13.26 Q 431.05 -11.95 431.11 -10.7 Q 431.17 -9.45 431.29 -8.32 Q 431.41 -7.19 431.68 -6.25 L 431.68 -6.25 Q 431.88 -5.51 432.27 -4.73 Q 432.66 -3.95 432.66 -3.28 L 432.66 -3.28 Q 432.58 -2.38 431.91 -1.72 Q 431.25 -1.05 430.35 -0.61 Q 429.45 -0.16 428.5 0.08 Q 427.54 0.31 426.88 0.31 L 426.88 0.31 Q 424.45 0.31 422.89 0.16 Q 421.33 0 420.39 -0.76 Q 419.45 -1.52 419.08 -3.16 Q 418.71 -4.8 418.71 -7.77 Z M 457.7 -27.85 L 457.7 -27.85 Q 457.7 -28.16 457.99 -28.83 Q 458.28 -29.49 458.4 -30.08 L 458.4 -30.08 Q 458.59 -30.94 458.57 -31.78 Q 458.55 -32.62 458.63 -32.81 L 458.63 -32.81 Q 458.75 -33.09 459.12 -33.46 Q 459.49 -33.83 459.94 -34.26 Q 460.39 -34.69 460.84 -35.14 Q 461.29 -35.59 461.6 -36.02 L 461.6 -36.02 Q 461.88 -36.41 462.95 -36.97 Q 464.02 -37.54 465.63 -38.2 Q 467.23 -38.87 469.22 -39.51 Q 471.21 -40.16 473.3 -40.68 Q 475.39 -41.21 477.48 -41.54 Q 479.57 -41.88 481.37 -41.91 L 481.37 -41.91 Q 482.11 -41.91 483.03 -41.64 Q 483.95 -41.37 484.86 -40.92 Q 485.78 -40.47 486.64 -39.88 Q 487.5 -39.3 488.09 -38.71 L 488.09 -38.71 Q 488.4 -38.4 488.67 -37.68 Q 488.95 -36.95 489.3 -36.48 L 489.3 -36.48 Q 490.16 -35.39 490.49 -34.84 Q 490.82 -34.3 490.92 -33.87 Q 491.02 -33.44 490.98 -32.93 Q 490.94 -32.42 491.05 -31.37 L 491.05 -31.37 Q 491.13 -30.55 491.17 -30 Q 491.21 -29.45 491.21 -28.98 Q 491.21 -28.52 491.21 -28.09 Q 491.21 -27.66 491.21 -27.11 L 491.21 -27.11 Q 491.21 -25.98 490.63 -25.27 Q 490.04 -24.57 489.02 -23.98 Q 488.01 -23.4 486.58 -22.85 Q 485.16 -22.3 483.52 -21.52 L 483.52 -21.52 Q 482.15 -20.86 480.59 -20.59 Q 479.02 -20.31 477.7 -20.31 L 477.7 -20.31 Q 477.5 -20.31 477.38 -20.31 Q 477.27 -20.31 477.07 -20.39 L 477.07 -20.39 Q 476.8 -20.43 476.13 -20.23 Q 475.47 -20.04 474.61 -19.79 Q 473.75 -19.53 472.75 -19.32 Q 471.76 -19.1 470.82 -19.1 L 470.82 -19.1 Q 470.2 -19.1 469.63 -18.93 Q 469.06 -18.75 468.63 -18.48 Q 468.2 -18.2 467.95 -17.93 Q 467.7 -17.66 467.7 -17.42 L 467.7 -17.42 Q 467.7 -16.05 468.18 -15.23 Q 468.67 -14.41 469.26 -13.98 L 469.26 -13.98 Q 469.96 -13.48 470.82 -13.28 L 470.82 -13.28 Q 471.8 -12.85 472.7 -12.71 Q 473.59 -12.58 474.49 -12.58 L 474.49 -12.58 Q 475.98 -12.58 477.6 -12.81 Q 479.22 -13.05 481.29 -13.05 L 481.29 -13.05 Q 482.27 -13.05 482.95 -12.81 Q 483.63 -12.58 484.41 -12.58 L 484.41 -12.58 Q 485.23 -12.58 486.05 -12.73 Q 486.88 -12.89 487.62 -13.09 Q 488.36 -13.28 489.04 -13.44 Q 489.73 -13.59 490.31 -13.59 L 490.31 -13.59 Q 491.84 -13.59 492.52 -12.56 Q 493.2 -11.52 493.52 -9.38 L 493.52 -9.38 Q 493.59 -8.59 493.69 -7.93 Q 493.79 -7.27 493.79 -6.72 L 493.79 -6.72 Q 493.79 -6.09 493.71 -5.78 Q 493.63 -5.47 493.46 -5.23 Q 493.28 -5 492.99 -4.73 Q 492.7 -4.45 492.27 -3.91 L 492.27 -3.91 Q 491.8 -3.16 491.35 -2.34 Q 490.9 -1.52 490.29 -0.86 Q 489.69 -0.2 488.89 0.25 Q 488.09 0.7 486.95 0.7 L 486.95 0.7 Q 486.25 0.7 485.45 0.61 Q 484.65 0.51 483.85 0.39 Q 483.05 0.27 482.29 0.18 Q 481.52 0.08 480.9 0.08 L 480.9 0.08 Q 478.2 0.08 475.45 -0.02 Q 472.7 -0.12 470.23 -0.7 L 470.23 -0.7 Q 469.41 -0.94 468.52 -1.11 Q 467.62 -1.29 466.72 -1.52 Q 465.82 -1.76 465 -2.09 Q 464.18 -2.42 463.59 -2.89 L 463.59 -2.89 Q 461.91 -4.57 460.92 -6.56 Q 459.92 -8.55 459.36 -11.05 Q 458.79 -13.55 458.55 -16.6 Q 458.32 -19.65 458.16 -23.44 L 458.16 -23.44 Q 458.09 -24.77 457.89 -25.98 Q 457.7 -27.19 457.7 -27.85 Z M 466.72 -28.01 L 466.72 -28.01 Q 466.72 -26.37 466.93 -25.47 Q 467.15 -24.57 467.7 -24.57 L 467.7 -24.57 Q 468.05 -24.57 468.48 -24.69 Q 468.91 -24.8 469.32 -24.94 Q 469.73 -25.08 470.06 -25.2 Q 470.39 -25.31 470.59 -25.35 L 470.59 -25.35 Q 471.45 -25.51 472.7 -25.59 Q 473.95 -25.66 475.14 -25.84 Q 476.33 -26.02 477.25 -26.35 Q 478.16 -26.68 478.4 -27.34 L 478.4 -27.34 Q 478.48 -27.54 478.52 -27.77 Q 478.55 -28.01 478.55 -28.24 L 478.55 -28.24 Q 478.55 -29.41 478.34 -30.33 Q 478.13 -31.25 477.83 -31.89 Q 477.54 -32.54 477.19 -32.87 Q 476.84 -33.2 476.56 -33.2 L 476.56 -33.2 Q 475.82 -33.2 474.34 -32.91 Q 472.85 -32.62 471.33 -32.19 Q 469.8 -31.76 468.57 -31.25 Q 467.34 -30.74 467.07 -30.31 L 467.07 -30.31 Q 466.88 -30 466.8 -29.39 Q 466.72 -28.79 466.72 -28.01 Z M 496.56 -7.42 L 496.56 -7.42 Q 496.56 -8.71 496.78 -9.98 Q 496.99 -11.25 497.29 -12.54 Q 497.58 -13.83 497.87 -15.14 Q 498.16 -16.45 498.32 -17.85 L 498.32 -17.85 Q 498.52 -19.73 498.65 -21.89 Q 498.79 -24.06 498.79 -25.94 L 498.79 -25.94 Q 498.79 -27.5 498.55 -29.45 L 498.55 -29.45 Q 498.48 -29.92 498.28 -30.39 Q 498.09 -30.86 498.09 -31.29 L 498.09 -31.29 Q 498.09 -31.88 498.22 -32.54 Q 498.36 -33.2 498.54 -33.87 Q 498.71 -34.53 498.87 -35.21 Q 499.02 -35.9 499.06 -36.56 L 499.06 -36.56 Q 499.06 -37.23 498.89 -37.64 Q 498.71 -38.05 498.71 -38.48 L 498.71 -38.48 Q 498.71 -39.57 499.14 -40.18 Q 499.57 -40.78 500.04 -41.04 Q 500.51 -41.29 500.86 -41.33 Q 501.21 -41.37 501.05 -41.37 L 501.05 -41.37 Q 502.54 -41.37 503.38 -40.76 Q 504.22 -40.16 504.63 -39.26 Q 505.04 -38.36 505.16 -37.32 Q 505.27 -36.29 505.35 -35.39 Q 505.43 -34.49 505.57 -33.89 Q 505.7 -33.28 506.17 -33.28 L 506.17 -33.28 Q 506.48 -33.28 506.97 -33.55 Q 507.46 -33.83 507.89 -34.14 Q 508.32 -34.45 508.55 -34.67 Q 508.79 -34.88 508.63 -34.73 L 508.63 -34.73 L 508.55 -34.65 Q 508.59 -34.65 508.63 -34.69 L 508.63 -34.69 Q 508.75 -34.8 508.91 -34.88 L 508.91 -34.88 Q 508.91 -34.88 508.75 -34.8 L 508.75 -34.8 L 508.71 -34.8 Q 509.22 -35.2 509.73 -35.59 L 509.73 -35.59 Q 510.16 -35.9 510.66 -36.27 Q 511.17 -36.64 511.6 -36.88 L 511.6 -36.88 Q 512.27 -37.3 513.09 -37.48 Q 513.91 -37.66 514.57 -38.09 L 514.57 -38.09 Q 515.16 -38.52 515.74 -39.02 Q 516.33 -39.53 516.8 -39.84 L 516.8 -39.84 Q 517.27 -40.04 517.95 -40.23 Q 518.63 -40.43 519.41 -40.57 Q 520.2 -40.7 520.94 -40.8 Q 521.68 -40.9 522.27 -40.9 L 522.27 -40.9 Q 522.81 -40.9 523.2 -40.72 Q 523.59 -40.55 523.95 -40.27 Q 524.3 -40 524.71 -39.73 Q 525.12 -39.45 525.7 -39.3 L 525.7 -39.3 Q 526.45 -39.06 527.42 -38.96 Q 528.4 -38.87 529.26 -38.52 L 529.26 -38.52 Q 530.08 -38.13 530.66 -37.34 L 530.66 -37.34 Q 531.21 -36.6 531.21 -35.08 L 531.21 -35.08 Q 531.21 -34.96 531.21 -34.88 L 531.21 -34.88 Q 531.21 -34.14 531.37 -33.55 Q 531.52 -32.97 531.7 -32.5 Q 531.88 -32.03 532.03 -31.6 Q 532.19 -31.17 532.19 -30.7 L 532.19 -30.7 Q 532.19 -30.27 532.13 -29.79 Q 532.07 -29.3 532.07 -28.79 L 532.07 -28.79 Q 532.07 -28.01 532.36 -27.13 Q 532.66 -26.25 532.66 -25.74 L 532.66 -25.74 Q 532.62 -25.35 532.44 -25.1 Q 532.27 -24.84 532.05 -24.51 Q 531.84 -24.18 531.68 -23.71 Q 531.52 -23.24 531.52 -22.46 L 531.52 -22.46 Q 531.52 -22.15 531.56 -21.91 Q 531.6 -21.68 531.6 -21.37 L 531.6 -21.37 Q 531.6 -20.2 531.07 -19.55 Q 530.55 -18.91 529.67 -18.52 Q 528.79 -18.13 527.62 -17.91 Q 526.45 -17.7 525.2 -17.34 L 525.2 -17.34 Q 524.3 -17.11 523.28 -16.8 Q 522.27 -16.48 521.29 -16.48 L 521.29 -16.48 Q 519.65 -16.48 518.96 -17.42 Q 518.28 -18.36 518.09 -19.77 L 518.09 -19.77 Q 517.93 -20.78 517.93 -21.91 L 517.93 -21.91 Q 517.93 -22.38 517.97 -22.85 L 517.97 -22.85 Q 518.01 -23.59 518.01 -24.26 L 518.01 -24.26 Q 518.01 -25.16 517.93 -25.94 L 517.93 -25.94 Q 517.85 -27.34 517.36 -28.28 Q 516.88 -29.22 515.55 -29.22 L 515.55 -29.22 Q 515 -29.22 514.41 -29.02 Q 513.83 -28.83 513.3 -28.57 Q 512.77 -28.32 512.32 -28.07 Q 511.88 -27.81 511.6 -27.7 L 511.6 -27.7 Q 511.02 -27.42 510.25 -27.13 Q 509.49 -26.84 508.79 -26.5 Q 508.09 -26.17 507.6 -25.76 Q 507.11 -25.35 507.11 -24.8 L 507.11 -24.8 Q 507.11 -23.91 507.52 -22.52 Q 507.93 -21.13 508.4 -19.75 Q 508.87 -18.36 509.28 -17.29 Q 509.69 -16.21 509.69 -15.94 L 509.69 -15.94 Q 509.69 -15.66 509.57 -15.41 Q 509.45 -15.16 509.45 -14.8 L 509.45 -14.8 Q 509.45 -14.26 509.59 -13.63 Q 509.73 -13.01 509.9 -12.32 Q 510.08 -11.64 510.23 -10.92 Q 510.39 -10.2 510.39 -9.45 L 510.39 -9.45 Q 510.39 -9.22 510.35 -8.46 Q 510.31 -7.7 510.23 -6.82 Q 510.16 -5.94 510.02 -5.14 Q 509.88 -4.34 509.69 -3.98 L 509.69 -3.98 Q 509.49 -3.67 509.22 -3.52 Q 508.95 -3.36 508.63 -3.26 Q 508.32 -3.16 507.97 -3.07 Q 507.62 -2.97 507.23 -2.73 L 507.23 -2.73 Q 506.37 -2.19 505.98 -1.74 Q 505.59 -1.29 505.21 -0.96 Q 504.84 -0.63 504.28 -0.43 Q 503.71 -0.23 502.5 -0.23 L 502.5 -0.23 Q 500.82 -0.23 499.69 -0.64 Q 498.55 -1.05 497.85 -1.93 Q 497.15 -2.81 496.86 -4.18 Q 496.56 -5.55 496.56 -7.42 Z M 533.05 -14.96 L 533.05 -14.96 Q 533.05 -16.02 533.59 -16.88 Q 534.14 -17.73 535.1 -18.34 Q 536.05 -18.95 537.32 -19.28 Q 538.59 -19.61 540.04 -19.61 L 540.04 -19.61 Q 540.82 -19.61 541.35 -19.57 Q 541.88 -19.53 542.4 -19.36 Q 542.93 -19.18 543.54 -18.77 Q 544.14 -18.36 545.08 -17.62 L 545.08 -17.62 Q 545.43 -17.23 546 -16.89 Q 546.56 -16.56 546.76 -16.33 L 546.76 -16.33 Q 547.03 -15.98 547.17 -15.51 Q 547.3 -15.04 547.46 -14.53 Q 547.62 -14.02 547.85 -13.59 Q 548.09 -13.16 548.52 -12.89 L 548.52 -12.89 Q 548.91 -12.46 549.38 -12.27 Q 549.84 -12.07 550.25 -11.86 Q 550.66 -11.64 550.94 -11.29 Q 551.21 -10.94 551.21 -10.23 L 551.21 -10.23 Q 551.21 -9.88 551.17 -9.57 Q 551.13 -9.26 551.13 -8.95 L 551.13 -8.95 Q 551.13 -8.32 551.45 -7.85 Q 551.76 -7.38 552.27 -7.05 Q 552.77 -6.72 553.36 -6.56 Q 553.95 -6.41 554.49 -6.41 L 554.49 -6.41 Q 555.2 -6.41 555.92 -6.64 Q 556.64 -6.88 557.27 -7.36 Q 557.89 -7.85 558.28 -8.57 Q 558.67 -9.3 558.67 -10.23 L 558.67 -10.23 Q 558.67 -10.98 558.38 -11.91 Q 558.09 -12.85 558.09 -13.98 L 558.09 -13.98 Q 558.09 -14.53 558.13 -15.14 Q 558.16 -15.74 558.16 -16.25 L 558.16 -16.25 Q 558.16 -17.15 557.4 -17.79 Q 556.64 -18.44 555.39 -18.95 Q 554.14 -19.45 552.56 -19.84 Q 550.98 -20.23 549.36 -20.63 Q 547.73 -21.02 546.21 -21.45 Q 544.69 -21.88 543.55 -22.46 L 543.55 -22.46 Q 542.93 -22.77 542.32 -23.38 Q 541.72 -23.98 541.05 -24.49 L 541.05 -24.49 Q 540.23 -25.12 539.49 -25.64 Q 538.75 -26.17 538.18 -26.91 Q 537.62 -27.66 537.3 -28.71 Q 536.99 -29.77 536.99 -31.45 L 536.99 -31.45 Q 536.99 -34.49 537.81 -36.27 Q 538.63 -38.05 540.16 -39.02 Q 541.68 -40 543.87 -40.39 Q 546.05 -40.78 548.75 -41.05 L 548.75 -41.05 Q 549.96 -41.17 551.35 -41.31 Q 552.73 -41.45 554.1 -41.45 L 554.1 -41.45 Q 555.08 -41.45 556.45 -41.05 Q 557.81 -40.66 559.2 -39.88 Q 560.59 -39.1 561.84 -37.91 Q 563.09 -36.72 563.79 -35.12 L 563.79 -35.12 Q 563.98 -34.65 564.18 -34.32 Q 564.38 -33.98 564.51 -33.69 Q 564.65 -33.4 564.73 -33.11 Q 564.8 -32.81 564.8 -32.38 L 564.8 -32.38 Q 564.65 -31.45 564.32 -30.88 Q 563.98 -30.31 563.44 -30.04 Q 562.89 -29.77 562.13 -29.69 Q 561.37 -29.61 560.35 -29.61 L 560.35 -29.61 Q 559.92 -29.61 559.59 -29.61 Q 559.26 -29.61 559.14 -29.69 L 559.14 -29.69 Q 558.32 -29.84 557.34 -30.47 Q 556.37 -31.09 555.35 -31.8 Q 554.34 -32.5 553.38 -33.11 Q 552.42 -33.71 551.72 -33.83 L 551.72 -33.83 Q 550.59 -34.06 549.69 -34.06 L 549.69 -34.06 Q 547.89 -34.06 546.84 -33.34 Q 545.78 -32.62 545.78 -31.6 L 545.78 -31.6 Q 545.78 -30.98 546.43 -30.23 Q 547.07 -29.49 547.89 -28.85 Q 548.71 -28.2 549.49 -27.73 Q 550.27 -27.27 550.51 -27.19 L 550.51 -27.19 Q 550.82 -27.07 551.39 -27.11 Q 551.95 -27.15 552.42 -26.95 L 552.42 -26.95 Q 552.77 -26.84 553.05 -26.58 Q 553.32 -26.33 553.71 -26.25 L 553.71 -26.25 Q 554.69 -25.94 555.78 -25.84 Q 556.88 -25.74 557.85 -25.43 L 557.85 -25.43 Q 560.82 -24.53 562.62 -23.52 Q 564.41 -22.5 565.47 -20.92 Q 566.52 -19.34 567.05 -16.99 Q 567.58 -14.65 568.01 -11.13 L 568.01 -11.13 Q 568.13 -10.12 568.36 -9.43 Q 568.59 -8.75 568.59 -8.09 L 568.59 -8.09 Q 568.59 -7.46 568.28 -6.72 L 568.28 -6.72 Q 568.13 -6.37 567.81 -6.05 Q 567.5 -5.74 567.13 -5.43 Q 566.76 -5.12 566.35 -4.79 Q 565.94 -4.45 565.55 -3.98 L 565.55 -3.98 Q 564.88 -3.2 564.47 -2.27 Q 564.06 -1.33 563.55 -0.78 L 563.55 -0.78 Q 563.55 -0.74 563.18 -0.45 Q 562.81 -0.16 562.36 0.16 Q 561.91 0.47 561.56 0.74 Q 561.21 1.02 561.29 0.98 L 561.29 0.98 Q 560.94 1.17 560.53 1.19 Q 560.12 1.21 559.61 1.21 L 559.61 1.21 Q 558.67 1.21 557.58 1.09 Q 556.48 0.98 555.39 0.98 L 555.39 0.98 Q 554.3 0.98 553.2 1.33 Q 552.11 1.68 550.98 1.68 L 550.98 1.68 Q 550 1.68 549.06 1.72 Q 548.13 1.76 547.15 1.76 L 547.15 1.76 Q 544.88 1.76 542.95 1.48 Q 541.02 1.21 539.41 0.41 Q 537.81 -0.39 536.54 -1.8 Q 535.27 -3.2 534.41 -5.43 L 534.41 -5.43 Q 534.22 -5.9 534.16 -6.46 Q 534.1 -7.03 534.08 -7.66 Q 534.06 -8.28 534.04 -8.93 Q 534.02 -9.57 533.95 -10.16 L 533.95 -10.16 Q 533.63 -11.72 533.34 -12.85 Q 533.05 -13.98 533.05 -14.96 Z" stroke-linecap="round" />
</g>
</svg>